<svg width="425" height="412" viewBox="0 0 425 412" fill="none" xmlns="http://www.w3.org/2000/svg">
<path d="M148.041 0H90.2508C88.7058 0 87.4534 1.25246 87.4534 2.79745V60.5877C87.4534 62.1327 88.7058 63.3851 90.2508 63.3851H148.041C149.586 63.3851 150.839 62.1327 150.839 60.5877V2.79745C150.839 1.25246 149.586 0 148.041 0Z" fill="#F0F0F0"/>
<path d="M137.665 15.6454H137.594C135.447 15.6454 133.708 15.7776 133.708 15.9506C134.844 16.2337 136.018 16.3367 137.187 16.2557C136.994 16.4592 136.709 16.7542 136.353 17.1509L133.301 20.6096L123.128 32.2877L118.846 29.3885C118.083 28.89 117.33 28.3712 116.628 27.9135L116.394 27.7711L116.221 27.9745C111.694 33.2642 107.686 37.9945 104.828 41.4124L101.481 45.4815C101.05 45.9545 100.662 46.4652 100.322 47.0073C100.797 46.5916 101.242 46.1429 101.654 45.6646L105.143 41.738C108.043 38.4319 112.04 33.8237 116.506 28.6256L118.541 29.9582L123.047 32.9489L123.271 33.1015L123.444 32.898L133.616 20.8842L136.556 17.3137C136.943 16.8457 137.207 16.4999 137.37 16.2964H137.421C137.334 17.4745 137.434 18.6588 137.716 19.806C137.889 19.806 138.021 18.1071 138.031 15.9913V15.6861L137.665 15.6454Z" fill="#E0E0E0"/>
<path d="M298.259 42.3076H329.265C329.265 48.4102 327.465 54.3772 324.089 59.4611C320.713 64.545 315.912 68.5197 310.288 70.8873C304.663 73.2548 298.465 73.9099 292.47 72.7705C286.474 71.6311 280.949 68.7478 276.585 64.4819C272.221 60.216 269.213 54.7571 267.938 48.7893C266.662 42.8214 267.176 36.6099 269.416 30.933C271.655 25.256 275.519 20.3661 280.525 16.8758C285.531 13.3855 291.456 11.45 297.557 11.3119L298.259 42.3076Z" fill="#F0F0F0"/>
<path d="M306.61 34.7494L305.919 3.7435C314.201 3.74006 322.177 6.87724 328.237 12.5224C334.039 18.2991 337.393 26.0872 337.606 34.2713L306.61 34.7494Z" fill="#EBEBEB"/>
<path d="M310.883 169.943C310.71 175.639 311.035 193.014 311.035 193.014L316.122 187.928H344.757C345.239 187.925 345.699 187.732 346.038 187.391C346.378 187.049 346.568 186.588 346.568 186.107V170.034C346.568 169.554 346.377 169.093 346.038 168.754C345.698 168.414 345.238 168.223 344.757 168.223H312.704C312.237 168.22 311.787 168.397 311.448 168.717C311.109 169.038 310.906 169.477 310.883 169.943Z" fill="#EBEBEB"/>
<path d="M325.511 178.07C325.509 178.335 325.429 178.594 325.28 178.814C325.131 179.033 324.921 179.204 324.675 179.304C324.43 179.404 324.16 179.429 323.9 179.376C323.64 179.323 323.402 179.194 323.215 179.006C323.029 178.818 322.902 178.579 322.851 178.318C322.8 178.058 322.827 177.789 322.929 177.544C323.031 177.299 323.203 177.09 323.423 176.943C323.644 176.796 323.903 176.717 324.168 176.717C324.346 176.717 324.521 176.752 324.685 176.821C324.848 176.889 324.997 176.989 325.122 177.114C325.246 177.24 325.345 177.389 325.412 177.553C325.479 177.717 325.513 177.893 325.511 178.07Z" fill="#E0E0E0"/>
<path d="M330.048 178.07C330.048 178.338 329.969 178.6 329.819 178.823C329.67 179.046 329.458 179.219 329.211 179.321C328.963 179.423 328.69 179.45 328.428 179.397C328.165 179.344 327.924 179.214 327.735 179.023C327.546 178.833 327.418 178.591 327.367 178.328C327.316 178.065 327.344 177.793 327.448 177.546C327.552 177.299 327.727 177.088 327.951 176.94C328.175 176.793 328.437 176.715 328.705 176.717C328.883 176.717 329.058 176.753 329.222 176.821C329.385 176.889 329.534 176.989 329.659 177.114C329.783 177.24 329.882 177.389 329.949 177.553C330.016 177.717 330.05 177.893 330.048 178.07Z" fill="#E0E0E0"/>
<path d="M334.585 178.07C334.585 178.338 334.506 178.6 334.357 178.822C334.208 179.045 333.997 179.218 333.75 179.32C333.503 179.423 333.231 179.45 332.968 179.397C332.706 179.345 332.465 179.216 332.275 179.027C332.086 178.838 331.957 178.597 331.905 178.334C331.853 178.072 331.88 177.8 331.982 177.553C332.085 177.305 332.258 177.094 332.48 176.945C332.703 176.797 332.965 176.717 333.232 176.717C333.591 176.717 333.935 176.86 334.189 177.114C334.442 177.367 334.585 177.712 334.585 178.07Z" fill="#E0E0E0"/>
<path d="M77.708 260.356C78.4709 250.458 85.7545 235.138 94.7063 230.856C99.2169 228.735 104.196 227.809 109.168 228.165C114.139 228.521 118.936 230.148 123.098 232.89C128.703 236.674 132.955 242.442 139.089 245.291C151.225 250.926 165.629 242.941 174.103 232.585C182.577 222.229 187.887 209.392 197.5 200.033C202.125 195.531 207.604 191.999 213.614 189.644C219.624 187.289 226.044 186.159 232.496 186.32C238.949 186.481 245.305 187.93 251.189 190.582C257.074 193.234 262.37 197.035 266.765 201.762C273.285 208.781 277.558 217.54 282.797 225.556C288.036 233.572 294.76 241.293 303.864 244.294C316.366 248.414 330.475 242.361 339.325 232.605C348.176 222.85 352.774 210.043 356.619 197.449C360.464 184.855 363.831 171.865 370.86 160.736C377.89 149.608 389.496 140.391 402.66 140.056V259.99L77.708 260.356Z" fill="#F0F0F0"/>
<path d="M424.215 410.961C424.215 411.103 329.245 411.225 212.118 411.225C94.9912 411.225 0 411.103 0 410.961C0 410.818 94.9505 410.696 212.118 410.696C329.285 410.696 424.215 410.859 424.215 410.961Z" fill="#263238"/>
<path d="M343.69 155.131C343.896 155.105 344.1 155.064 344.3 155.009C344.584 154.91 344.843 154.749 345.058 154.538C345.272 154.327 345.437 154.071 345.541 153.789C345.665 153.356 345.703 152.903 345.653 152.456C345.653 151.957 345.653 151.439 345.653 150.818C345.653 149.628 345.653 148.265 345.653 146.749C345.653 140.574 345.602 131.663 345.561 120.677C345.561 115.163 345.561 109.141 345.561 102.671C345.561 99.4264 345.561 96.0797 345.561 92.6312C345.561 90.912 345.561 89.1624 345.561 87.3923C345.561 86.5277 345.561 85.5714 345.561 84.7576C345.495 84.3612 345.296 83.9991 344.996 83.7311C344.696 83.463 344.315 83.3048 343.913 83.2826H296.469C296.008 83.2824 295.565 83.4619 295.235 83.7829C294.904 84.104 294.712 84.5412 294.699 85.0018C294.699 86.019 294.699 87.0363 294.699 88.1146V106.374C294.699 114.299 294.699 121.938 294.699 129.222C294.699 136.505 294.699 143.463 294.699 149.882V152.293C294.668 152.676 294.668 153.06 294.699 153.443C294.757 153.788 294.921 154.108 295.166 154.358C295.408 154.614 295.719 154.794 296.062 154.877C296.425 154.931 296.793 154.948 297.16 154.928H308.075L334.148 155.019L341.268 155.07H343.11H343.74C343.74 155.07 343.527 155.07 343.11 155.07H341.268L334.148 155.121L308.075 155.202H299.439H297.16C296.759 155.226 296.357 155.206 295.96 155.141C295.539 155.047 295.156 154.827 294.861 154.511C294.556 154.198 294.35 153.801 294.271 153.371C294.242 152.965 294.242 152.557 294.271 152.151V149.74C294.271 143.27 294.271 136.353 294.271 129.079C294.271 121.806 294.271 114.156 294.271 106.232C294.271 102.278 294.271 98.2498 294.271 94.1469V87.9722C294.271 86.9549 294.271 85.9377 294.271 84.839C294.29 84.2417 294.54 83.6751 294.969 83.2592C295.398 82.8434 295.973 82.611 296.57 82.6112H343.944C344.453 82.6433 344.936 82.8468 345.315 83.1885C345.693 83.5302 345.945 83.9901 346.029 84.4932C346.1 85.5104 346.029 86.3039 346.029 87.2092V92.4481C346.029 95.8966 346.029 99.2433 346.029 102.488C346.029 108.958 346.029 114.98 346.029 120.494C346.029 131.48 345.968 140.391 345.948 146.566C345.948 148.102 345.948 149.465 345.948 150.635C345.948 151.225 345.948 151.774 345.948 152.273C345.987 152.732 345.939 153.195 345.805 153.636C345.695 153.932 345.517 154.198 345.286 154.414C345.054 154.629 344.776 154.788 344.473 154.877C344.24 155.032 343.969 155.12 343.69 155.131Z" fill="#263238"/>
<path d="M323.426 97.2495C316.508 95.7134 308.91 99.4671 306.967 106.598C305.095 113.444 309.622 121.44 316.488 123.301C319.875 124.113 323.442 123.655 326.514 122.015C329.586 120.375 331.951 117.666 333.161 114.4C335.623 107.086 330.933 99.2026 323.853 96.8731C323.039 96.5984 322.714 97.8904 323.507 98.1549C329.539 100.362 333.873 106.873 332.062 113.414C330.353 119.619 323.08 123.769 316.875 122.121C310.903 120.534 307.048 114.126 307.811 108.154C308.737 100.84 316.478 96.4662 323.365 97.6564C323.619 97.6564 323.731 97.3207 323.477 97.2698L323.426 97.2495Z" fill="#263238"/>
<path d="M316.549 123.088C320.056 124.123 323.829 123.745 327.061 122.034C330.293 120.323 332.727 117.415 333.842 113.932C335.999 106.507 331.187 98.4702 323.955 96.2628C322.286 95.7542 321.686 98.2159 323.243 98.8263C329.346 101.227 333.415 107.87 331.014 114.39C328.858 120.189 322.51 122.986 316.62 122.325C316.152 122.264 316.091 122.996 316.519 123.118L316.549 123.088Z" fill="#BA68C8"/>
<path d="M334.178 135.254C334.178 135.397 327.892 135.519 320.12 135.519C312.348 135.519 306.061 135.397 306.061 135.254C306.061 135.112 312.358 134.99 320.12 134.99C327.881 134.99 334.178 135.112 334.178 135.254Z" fill="#BA68C8"/>
<path d="M334.178 139.516C334.178 139.669 327.892 139.781 320.12 139.781C312.348 139.781 306.061 139.669 306.061 139.516C306.061 139.364 312.358 139.252 320.12 139.252C327.881 139.252 334.178 139.374 334.178 139.516Z" fill="#BA68C8"/>
<path d="M142.527 38.7472V132.803C142.53 133.805 142.93 134.766 143.639 135.475C144.348 136.185 145.309 136.584 146.312 136.587H271.597C272.599 136.584 273.56 136.185 274.269 135.475C274.979 134.766 275.378 133.805 275.381 132.803V35.492C275.381 34.9864 275.28 34.4858 275.083 34.02C274.887 33.5541 274.599 33.1323 274.237 32.7796C273.874 32.4268 273.445 32.1502 272.974 31.9661C272.503 31.7821 272 31.6942 271.495 31.7078L146.21 34.963C145.225 34.9921 144.29 35.4033 143.602 36.1095C142.915 36.8158 142.53 37.7617 142.527 38.7472Z" fill="#E0E0E0"/>
<path d="M264.191 55.2064C264.191 55.3081 262.594 54.4028 259.562 53.4466C255.264 52.1063 250.719 51.7585 246.267 52.4293C243.225 52.9106 240.279 53.872 237.539 55.2776C234.41 56.9596 231.513 59.0422 228.923 61.4727C226.095 63.9751 223.287 66.8031 220.052 69.4174C216.753 72.2309 212.894 74.3113 208.73 75.521C206.572 76.078 204.327 76.2128 202.118 75.9177C200 75.5981 197.942 74.9602 196.014 74.0256C192.485 72.1841 189.062 70.1464 185.761 67.9221C182.802 65.9596 179.541 64.4988 176.107 63.5987C173.113 62.8724 170.021 62.6354 166.952 62.8968C162.472 63.2698 158.136 64.6615 154.277 66.9659C151.56 68.6342 150.279 69.8752 150.208 69.7938C150.481 69.4616 150.788 69.1582 151.123 68.8885C152.044 68.0609 153.031 67.309 154.073 66.6403C157.332 64.5361 160.981 63.1078 164.803 62.4403C168.624 61.7728 172.541 61.8796 176.32 62.7544C179.85 63.6356 183.206 65.1039 186.249 67.0981C189.53 69.2785 192.926 71.282 196.421 73.0999C200.151 75.0001 204.439 75.5017 208.506 74.5139C212.534 73.3277 216.267 71.307 219.462 68.5833C222.656 66.03 225.474 63.2122 228.343 60.7098C231.008 58.2509 233.983 56.1511 237.193 54.4638C240.021 53.0931 243.05 52.183 246.165 51.7681C250.709 51.1328 255.338 51.5824 259.674 53.0803C260.847 53.4794 261.986 53.9692 263.082 54.5452C263.473 54.7268 263.845 54.9483 264.191 55.2064Z" fill="#455A64"/>
<path d="M184.377 77.3012H172.119V110.443H184.377V77.3012Z" fill="#455A64"/>
<path d="M236.379 77.3012H224.121V110.443H236.379V77.3012Z" fill="#455A64"/>
<path d="M253.703 57.8411H241.445V110.443H253.703V57.8411Z" fill="#455A64"/>
<path d="M168.518 100.006H156.26V111.155H168.518V100.006Z" fill="#455A64"/>
<path d="M201.711 92.265H189.453V110.443H201.711V92.265Z" fill="#455A64"/>
<path d="M219.045 88.0942H206.787V110.443H219.045V88.0942Z" fill="#455A64"/>
<path d="M184.866 114.35C184.866 114.624 181.905 114.838 178.243 114.838C174.581 114.838 171.621 114.624 171.621 114.35C171.621 114.075 174.591 113.861 178.243 113.861C181.895 113.861 184.866 114.075 184.866 114.35Z" fill="#263238"/>
<path d="M169.617 114.35C169.617 114.624 166.647 114.838 162.995 114.838C159.343 114.838 156.372 114.624 156.372 114.35C156.372 114.075 159.343 113.861 162.995 113.861C166.647 113.861 169.617 114.075 169.617 114.35Z" fill="#263238"/>
<path d="M256.124 114.35C256.124 114.624 252.767 114.838 248.637 114.838C244.507 114.838 241.15 114.624 241.15 114.35C241.15 114.075 244.497 113.861 248.637 113.861C252.777 113.861 256.124 114.075 256.124 114.35Z" fill="#263238"/>
<path d="M230.428 114.838C234.563 114.838 237.915 114.619 237.915 114.35C237.915 114.08 234.563 113.861 230.428 113.861C226.293 113.861 222.941 114.08 222.941 114.35C222.941 114.619 226.293 114.838 230.428 114.838Z" fill="#263238"/>
<path d="M219.035 114.35C219.035 114.624 216.075 114.838 212.413 114.838C208.751 114.838 205.801 114.624 205.801 114.35C205.801 114.075 208.761 113.861 212.413 113.861C216.065 113.861 219.035 114.075 219.035 114.35Z" fill="#263238"/>
<path d="M201.131 114.35C201.131 114.624 198.161 114.838 194.509 114.838C190.857 114.838 187.887 114.624 187.887 114.35C187.887 114.075 190.847 113.861 194.509 113.861C198.171 113.861 201.131 114.075 201.131 114.35Z" fill="#263238"/>
<path d="M241.079 155.66H241.282C241.492 155.678 241.696 155.737 241.883 155.833C242.195 155.993 242.451 156.245 242.615 156.555C242.812 156.995 242.886 157.481 242.829 157.959C242.829 160.116 242.829 163.28 242.88 167.338C242.93 171.397 242.88 176.402 242.93 182.19C242.93 185.093 242.93 188.185 242.93 191.468V195.201C242.989 195.663 242.904 196.132 242.686 196.544C242.445 196.969 242.047 197.283 241.577 197.419C241.125 197.5 240.664 197.528 240.204 197.5H237.539L237.722 197.317C237.722 200.247 237.722 203.42 237.722 206.696V207.235L237.366 206.828L229.055 197.459L229.218 197.53H143.545H137.553C137.217 197.53 136.922 197.53 136.536 197.53C136.164 197.484 135.812 197.337 135.519 197.103C135.224 196.859 135.003 196.539 134.878 196.178C134.822 195.993 134.791 195.801 134.786 195.608V173.94C134.786 168.905 134.786 163.951 134.786 159.109V157.278C134.798 156.937 134.898 156.605 135.076 156.315C135.255 156.024 135.505 155.785 135.803 155.62C136.12 155.466 136.469 155.392 136.821 155.406H146.525L195.73 155.467L228.892 155.548L237.915 155.599H240.255H241.059H240.255H237.915H228.892L195.73 155.681L146.525 155.742H136.831C136.571 155.723 136.31 155.776 136.078 155.894C135.849 156.012 135.656 156.187 135.516 156.403C135.377 156.619 135.297 156.868 135.285 157.125V173.94C135.285 178.979 135.285 184.103 135.285 189.311V195.201C135.259 195.505 135.283 195.81 135.356 196.106C135.438 196.371 135.598 196.604 135.814 196.778C136.032 196.955 136.297 197.064 136.576 197.093H143.535H229.208H229.309L229.37 197.164L237.661 206.564L237.305 206.696C237.305 203.41 237.305 200.247 237.305 197.317V197.124H240.194C240.618 197.154 241.045 197.137 241.466 197.073C241.842 196.961 242.162 196.71 242.361 196.371C242.564 196.016 242.657 195.609 242.625 195.201C242.625 194.774 242.625 194.346 242.625 193.929V191.427C242.625 188.141 242.625 185.049 242.625 182.15C242.625 176.361 242.625 171.377 242.625 167.298C242.625 163.219 242.625 160.075 242.625 157.919C242.691 157.457 242.631 156.986 242.452 156.555C242.3 156.256 242.063 156.009 241.771 155.843C241.552 155.744 241.318 155.682 241.079 155.66Z" fill="#263238"/>
<path d="M140.483 189.982C141.337 187.002 142.334 183.96 144.318 181.58C146.301 179.2 149.526 177.602 152.527 178.376C157.278 179.596 159.566 185.924 164.419 186.514C167.104 186.88 169.719 185.273 171.448 183.187C173.177 181.102 174.245 178.569 175.568 176.209C177.602 172.659 180.278 169.373 183.93 167.593C187.582 165.812 192.281 165.802 195.475 168.315C200.948 172.628 200.185 182.15 206.014 185.954C207.432 186.845 209.082 187.295 210.756 187.246C212.429 187.197 214.051 186.652 215.414 185.679C218.008 183.757 219.33 180.441 222.056 178.721C225.21 176.687 229.584 177.511 232.442 179.912C235.301 182.312 236.786 186.015 237.325 189.698" fill="#BA68C8"/>
<path d="M235.362 172.872C235.28 172.855 235.201 172.824 235.128 172.781L234.457 172.465C233.579 172.092 232.675 171.786 231.751 171.55C228.318 170.813 224.758 170.918 221.375 171.855C219.041 172.487 216.77 173.332 214.59 174.378C212.22 175.476 209.768 176.819 207.154 178.172C204.428 179.646 201.592 180.905 198.67 181.936C195.51 183.054 192.157 183.521 188.813 183.309C185.485 182.995 182.226 182.171 179.149 180.868C176.148 179.667 173.391 178.253 170.766 176.931C165.538 174.245 160.594 172.099 156.24 171.448C152.787 170.818 149.23 171.077 145.905 172.201C144.7 172.654 143.541 173.223 142.446 173.9C142.507 173.837 142.575 173.782 142.649 173.737L143.26 173.299C144.068 172.782 144.927 172.349 145.823 172.008C149.175 170.791 152.786 170.468 156.301 171.072C160.767 171.692 165.731 173.828 170.98 176.494C173.615 177.806 176.371 179.21 179.342 180.39C182.372 181.667 185.579 182.473 188.853 182.78C192.129 182.99 195.413 182.533 198.507 181.437C201.403 180.428 204.216 179.194 206.92 177.745C209.544 176.392 212.006 175.069 214.407 173.981C216.617 172.939 218.919 172.104 221.283 171.489C224.723 170.566 228.34 170.52 231.802 171.356C233.064 171.66 234.268 172.172 235.362 172.872Z" fill="#263238"/>
<path d="M189.972 166.382C189.982 166.595 189.928 166.807 189.817 166.989C189.706 167.171 189.543 167.316 189.349 167.404C189.155 167.493 188.939 167.522 188.729 167.486C188.518 167.451 188.323 167.354 188.169 167.206C188.014 167.059 187.907 166.869 187.862 166.661C187.816 166.452 187.834 166.235 187.913 166.037C187.992 165.839 188.129 165.669 188.306 165.549C188.482 165.429 188.691 165.365 188.904 165.365C189.178 165.367 189.441 165.473 189.639 165.662C189.838 165.851 189.957 166.109 189.972 166.382Z" fill="#455A64"/>
<path d="M151.642 170.909C151.642 171.12 151.579 171.327 151.462 171.502C151.345 171.678 151.178 171.815 150.983 171.896C150.788 171.977 150.573 171.998 150.366 171.957C150.158 171.915 149.968 171.814 149.819 171.664C149.669 171.515 149.568 171.324 149.526 171.117C149.485 170.91 149.506 170.695 149.587 170.5C149.668 170.305 149.805 170.138 149.981 170.021C150.156 169.903 150.363 169.841 150.574 169.841C150.716 169.833 150.858 169.856 150.991 169.907C151.124 169.958 151.245 170.037 151.345 170.137C151.446 170.238 151.525 170.359 151.576 170.492C151.627 170.625 151.649 170.767 151.642 170.909Z" fill="#455A64"/>
<path d="M227.916 170.919C227.916 171.132 227.852 171.341 227.734 171.518C227.615 171.695 227.447 171.834 227.25 171.915C227.053 171.997 226.836 172.018 226.627 171.977C226.418 171.935 226.226 171.832 226.075 171.682C225.924 171.531 225.821 171.339 225.78 171.129C225.738 170.92 225.76 170.703 225.841 170.506C225.923 170.309 226.061 170.141 226.238 170.022C226.416 169.904 226.624 169.841 226.837 169.841C227.123 169.841 227.398 169.954 227.6 170.157C227.802 170.359 227.916 170.633 227.916 170.919Z" fill="#455A64"/>
<path d="M300.161 321.758H309.693C314.138 321.758 323.67 310.069 271.953 311.402C237.956 312.277 235.718 317.302 237.437 320.232C237.853 320.897 238.444 321.434 239.146 321.785C239.848 322.135 240.633 322.284 241.415 322.215C242.249 322.154 243.348 322.144 244.65 322.154L243.836 325.735L224.915 409.374L228.211 409.089L242.188 363.048L268.85 362.031L270.376 410.981H274.557L275.574 361.776H275.707L278.524 361.675L302.155 360.759L316.163 410.991H320.171L300.161 321.758ZM244.212 356.487L253.541 325.735L254.558 322.256C258.464 322.256 263.032 322.164 267.609 322.164L268.626 355.734L244.212 356.487ZM279.369 355.388H278.351L275.757 355.469L276.449 321.727H291.342L300.497 354.696L279.369 355.388Z" fill="#455A64"/>
<path d="M214.966 405.213V394.4L234.345 394.278L234.497 410.442L233.297 410.533C227.956 410.879 206.106 411.551 202.525 410.432C198.537 409.201 214.966 405.213 214.966 405.213Z" fill="#BA68C8"/>
<path d="M202.067 409.445C202.067 409.628 209.31 409.781 218.252 409.781C227.194 409.781 234.436 409.628 234.436 409.445C234.436 409.262 227.194 409.119 218.252 409.119C209.31 409.119 202.067 409.262 202.067 409.445Z" fill="#263238"/>
<path d="M214.63 407.421C214.793 407.339 214.63 406.77 214.234 406.2C213.837 405.63 213.318 405.335 213.216 405.467C213.115 405.6 213.349 406.068 213.735 406.597C214.122 407.126 214.468 407.512 214.63 407.421Z" fill="#263238"/>
<path d="M213.389 408.133C213.562 408.072 213.471 407.431 213.094 406.759C212.718 406.088 212.209 405.671 212.077 405.742C211.945 405.813 212.179 406.413 212.535 407.034C212.891 407.655 213.217 408.204 213.389 408.133Z" fill="#263238"/>
<path d="M228.597 409.374C228.679 409.374 228.964 409.14 229.381 408.662C229.895 408.045 230.463 407.477 231.08 406.963C231.687 406.482 232.409 406.166 233.175 406.047C233.765 405.966 234.192 406.047 234.192 405.966C234.192 405.885 233.867 405.63 233.175 405.579C232.273 405.573 231.396 405.878 230.693 406.444C230.017 406.985 229.447 407.647 229.015 408.397C228.679 408.946 228.526 409.323 228.597 409.374Z" fill="#263238"/>
<path d="M214.57 405.386C214.478 405.539 214.803 405.915 215.363 406.119C215.922 406.322 216.38 406.251 216.441 406.119C216.502 405.986 216.075 405.722 215.587 405.539C215.098 405.356 214.661 405.233 214.57 405.386Z" fill="#263238"/>
<path d="M214.875 404.348C214.875 404.521 215.373 404.684 216.024 404.684C216.675 404.684 217.204 404.552 217.194 404.379C217.184 404.206 216.665 404.043 216.034 404.033C215.403 404.023 214.895 404.165 214.875 404.348Z" fill="#263238"/>
<path d="M255.85 405.213V394.4L275.228 394.278L275.381 410.442L274.18 410.533C268.84 410.879 246.989 411.551 243.408 410.432C239.431 409.201 255.85 405.213 255.85 405.213Z" fill="#BA68C8"/>
<path d="M242.961 409.445C242.961 409.628 250.214 409.781 259.145 409.781C268.077 409.781 275.33 409.628 275.33 409.445C275.33 409.262 268.087 409.119 259.145 409.119C250.204 409.119 242.961 409.262 242.961 409.445Z" fill="#263238"/>
<path d="M255.524 407.421C255.687 407.339 255.524 406.77 255.127 406.2C254.731 405.63 254.212 405.335 254.11 405.467C254.008 405.6 254.252 406.068 254.629 406.597C255.005 407.126 255.361 407.512 255.524 407.421Z" fill="#263238"/>
<path d="M254.283 408.133C254.456 408.072 254.364 407.431 253.988 406.759C253.612 406.088 253.103 405.671 252.971 405.742C252.839 405.813 253.072 406.413 253.428 407.034C253.785 407.655 254.12 408.204 254.283 408.133Z" fill="#263238"/>
<path d="M269.491 409.374C269.572 409.374 269.857 409.14 270.274 408.662C270.788 408.045 271.357 407.477 271.973 406.963C272.581 406.482 273.303 406.166 274.069 406.047C274.659 405.966 275.086 406.047 275.086 405.966C275.086 405.885 274.75 405.63 274.069 405.579C273.166 405.573 272.29 405.878 271.587 406.444C270.91 406.985 270.341 407.647 269.908 408.397C269.572 408.946 269.42 409.323 269.491 409.374Z" fill="#263238"/>
<path d="M255.463 405.386C255.371 405.539 255.707 405.915 256.256 406.119C256.806 406.322 257.274 406.251 257.335 406.119C257.396 405.986 256.969 405.722 256.48 405.539C255.992 405.356 255.565 405.233 255.463 405.386Z" fill="#263238"/>
<path d="M255.768 404.348C255.768 404.521 256.267 404.684 256.918 404.684C257.569 404.684 258.098 404.552 258.088 404.379C258.077 404.206 257.559 404.043 256.928 404.033C256.297 404.023 255.789 404.165 255.768 404.348Z" fill="#263238"/>
<path d="M311.371 211.253C310.578 211.07 309.591 211.172 309.113 210.511C308.635 209.849 308.981 209.076 309.235 208.374C310.086 206.123 310.111 203.644 309.306 201.376C308.73 199.88 307.711 198.596 306.387 197.693C306.581 197.507 306.749 197.294 306.885 197.063C307.261 196.385 307.45 195.62 307.435 194.845C307.46 194.156 307.34 193.469 307.082 192.829C306.825 192.19 306.435 191.611 305.939 191.132C305.503 190.737 304.936 190.518 304.347 190.518C303.759 190.518 303.191 190.737 302.755 191.132C302.594 191.284 302.465 191.468 302.377 191.672C302.289 191.875 302.243 192.095 302.243 192.317C302.243 192.539 302.289 192.759 302.377 192.963C302.465 193.166 302.594 193.35 302.755 193.502C302.969 193.677 303.227 193.787 303.501 193.821C303.774 193.856 304.052 193.812 304.301 193.695C304.637 193.523 304.688 193.309 304.688 193.309C304.562 193.429 304.418 193.528 304.261 193.604C304.03 193.685 303.781 193.704 303.54 193.66C303.299 193.615 303.074 193.508 302.887 193.35C302.754 193.212 302.651 193.048 302.585 192.868C302.518 192.688 302.49 192.497 302.502 192.306C302.513 192.114 302.564 191.927 302.652 191.757C302.739 191.586 302.861 191.436 303.01 191.315C303.399 190.991 303.895 190.824 304.401 190.847C304.907 190.869 305.387 191.08 305.746 191.437C306.184 191.888 306.523 192.424 306.744 193.012C306.965 193.6 307.061 194.228 307.028 194.855C307.042 195.55 306.866 196.236 306.519 196.839C306.382 197.064 306.214 197.27 306.021 197.449C305.477 197.122 304.887 196.878 304.271 196.727C302.959 196.412 301.535 196.493 300.334 195.872C299.333 195.3 298.571 194.387 298.188 193.299C298.188 193.187 298.188 193.065 298.188 192.943C298.331 191.174 298.573 189.415 298.91 187.673C299.136 185.982 299.091 184.265 298.778 182.587C298.544 181.156 297.984 179.797 297.143 178.616C296.302 177.434 295.201 176.461 293.925 175.771C293.05 175.34 292.09 175.107 291.114 175.09C290.138 175.072 289.17 175.27 288.28 175.67C287.803 175.888 287.363 176.179 286.978 176.534L286.764 176.758C286.163 177.056 285.632 177.48 285.208 177.999L282.074 206.259L305.054 220.307C306.843 220.247 308.612 219.904 310.293 219.29C311.131 218.97 311.884 218.46 312.491 217.8C313.098 217.139 313.544 216.347 313.792 215.485C314.005 214.604 313.873 213.675 313.423 212.888C312.973 212.101 312.239 211.516 311.371 211.253ZM296.286 181.661C295.884 180.546 295.265 179.521 294.463 178.648C293.661 177.775 292.693 177.07 291.616 176.575C290.117 175.988 288.446 176.017 286.967 176.656C287.379 176.34 287.83 176.08 288.31 175.883C289.175 175.533 290.106 175.374 291.038 175.416C291.97 175.458 292.882 175.701 293.712 176.127C294.915 176.809 295.949 177.754 296.735 178.892C297.52 180.031 298.038 181.332 298.249 182.699C298.533 184.318 298.568 185.972 298.351 187.602C298.218 188.874 297.862 190.155 297.7 191.519C297.574 190.553 297.499 189.582 297.476 188.609C297.471 186.243 297.068 183.894 296.286 181.661Z" fill="#263238"/>
<path d="M289.48 181.621C289.342 181.079 289.027 180.599 288.585 180.258C287.716 179.864 286.729 179.82 285.828 180.135L285.777 173.645L273.143 163.371L266.338 166.901C264.594 167.807 263.135 169.178 262.123 170.863C261.11 172.547 260.583 174.478 260.6 176.443C260.651 181.672 260.783 188.762 261.129 192.79C261.719 199.707 268.718 200.277 268.718 200.277C268.718 200.277 269.023 202.769 269.227 205.241C269.227 205.241 267.691 225.719 274.893 225.536C280.203 225.403 283.773 214.244 285.279 208.374L286.082 205.15V204.977V204.845L285.93 185.425L286.143 185.649C286.373 185.843 286.654 185.966 286.952 186.002C287.251 186.039 287.553 185.986 287.822 185.852C288.204 185.683 288.548 185.438 288.833 185.132C289.118 184.826 289.338 184.465 289.48 184.072C289.75 183.277 289.75 182.416 289.48 181.621Z" fill="#FFBE9D"/>
<path d="M262.208 181.499C262.209 181.615 262.233 181.73 262.28 181.837C262.326 181.944 262.394 182.041 262.478 182.122C262.562 182.202 262.662 182.265 262.771 182.307C262.88 182.348 262.996 182.367 263.113 182.363C263.348 182.363 263.573 182.27 263.739 182.104C263.905 181.938 263.998 181.713 263.998 181.478C263.998 181.244 263.905 181.018 263.739 180.852C263.573 180.686 263.348 180.593 263.113 180.593C262.993 180.589 262.873 180.609 262.762 180.653C262.65 180.697 262.548 180.764 262.463 180.849C262.378 180.934 262.312 181.035 262.268 181.147C262.224 181.259 262.203 181.379 262.208 181.499Z" fill="#263238"/>
<path d="M261.323 180.563C261.434 180.675 262.075 180.095 263.031 180.024C263.988 179.952 264.71 180.39 264.812 180.258C264.913 180.125 264.73 179.993 264.415 179.79C263.988 179.518 263.484 179.397 262.981 179.444C262.479 179.487 262.005 179.69 261.628 180.024C261.353 180.278 261.261 180.512 261.323 180.563Z" fill="#263238"/>
<path d="M272.482 181.193C272.482 181.428 272.575 181.653 272.741 181.819C272.907 181.985 273.132 182.078 273.367 182.078C273.601 182.078 273.827 181.985 273.992 181.819C274.158 181.653 274.252 181.428 274.252 181.193C274.252 180.959 274.158 180.734 273.992 180.568C273.827 180.402 273.601 180.308 273.367 180.308C273.132 180.308 272.907 180.402 272.741 180.568C272.575 180.734 272.482 180.959 272.482 181.193Z" fill="#263238"/>
<path d="M271.912 180.247C272.024 180.359 272.665 179.79 273.621 179.708C274.577 179.627 275.3 180.074 275.401 179.952C275.503 179.83 275.32 179.678 275.005 179.474C274.575 179.214 274.074 179.097 273.573 179.139C273.072 179.181 272.598 179.38 272.217 179.708C271.943 179.942 271.851 180.196 271.912 180.247Z" fill="#263238"/>
<path d="M268.647 188.446C268.132 188.554 267.605 188.595 267.08 188.568C266.942 188.587 266.801 188.587 266.663 188.568C266.572 188.549 266.487 188.509 266.414 188.451C266.342 188.392 266.284 188.318 266.246 188.233C266.149 187.897 266.171 187.538 266.307 187.215L266.887 185.181C267.329 183.444 267.904 181.744 268.606 180.095C268.297 181.858 267.855 183.596 267.284 185.293L266.673 187.327C266.559 187.564 266.52 187.831 266.561 188.09C266.612 188.263 266.836 188.294 267.08 188.294C267.607 188.271 268.134 188.322 268.647 188.446Z" fill="#263238"/>
<path d="M271.953 189.219C272.014 189.148 269.196 190.918 267.253 190.969C267.613 191.446 268.123 191.787 268.701 191.936C269.279 192.086 269.891 192.035 270.437 191.793C270.967 191.634 271.418 191.281 271.699 190.803C271.98 190.326 272.071 189.761 271.953 189.219Z" fill="#FAFAFA"/>
<path d="M268.677 200.287C271.964 200.07 275.12 198.916 277.772 196.961C277.772 196.961 275.818 202.098 268.871 201.976L268.677 200.287Z" fill="#EB996E"/>
<path d="M259.593 177.277C262.645 177.694 264.832 176.87 267.782 176.127C270.732 175.385 273.54 173.442 274.567 170.573C274.921 172.47 275.794 174.23 277.09 175.659C277.365 175.965 277.894 176.25 278.107 175.914C278.153 175.815 278.176 175.707 278.176 175.598C278.176 175.49 278.153 175.382 278.107 175.283L277.497 172.862C278.541 174.771 279.9 176.49 281.515 177.948C283.204 179.301 288.341 181.397 287.557 179.383C287.364 178.874 289.083 163.188 274.17 162.954C259.257 162.72 259.593 177.277 259.593 177.277Z" fill="#263238"/>
<path d="M286.021 181.743C285.97 181.743 286.276 181.387 286.917 181.407C287.243 181.433 287.555 181.553 287.815 181.753C288.074 181.954 288.27 182.225 288.378 182.535C288.486 182.844 288.501 183.179 288.422 183.497C288.343 183.815 288.174 184.103 287.934 184.326C287.65 184.574 287.292 184.721 286.917 184.744C286.276 184.744 285.981 184.438 286.021 184.398C286.062 184.357 286.388 184.469 286.876 184.398C287.179 184.344 287.454 184.185 287.652 183.948C287.849 183.712 287.958 183.414 287.958 183.106C287.958 182.798 287.849 182.499 287.652 182.263C287.454 182.027 287.179 181.868 286.876 181.814C286.367 181.671 286.052 181.824 286.021 181.743Z" fill="#EB996E"/>
<path d="M310.781 230.469L313.345 229.95C313.345 229.95 307.76 204.845 288.351 204.845H286.062V204.967V205.14L285.258 208.364C283.753 214.234 280.172 225.393 274.872 225.525C268.148 225.698 269.043 207.906 269.186 205.506C269.017 205.525 268.853 205.57 268.698 205.638C268.698 205.638 247.59 206.808 238.18 225.322L254.456 237.214L258.433 234.813C258.433 234.813 259.736 260.997 257.498 268.128C254.975 276.185 251.069 285.106 251.069 285.106C268.962 283.712 289.317 284.516 311.015 286.52L296.54 233.368C301.404 233.11 306.203 232.133 310.781 230.469Z" fill="#BA68C8"/>
<path d="M293.366 243.012C293.366 243.012 293.234 243.246 292.908 243.582C292.44 244.043 291.925 244.456 291.372 244.812C289.522 246.018 287.344 246.622 285.137 246.542C282.929 246.462 280.801 245.701 279.043 244.365C278.513 243.973 278.028 243.522 277.598 243.022C277.293 242.666 277.161 242.442 277.192 242.422C277.222 242.402 277.914 243.154 279.226 244.06C280.966 245.258 283.012 245.935 285.124 246.013C287.235 246.09 289.325 245.565 291.148 244.497C292.583 243.704 293.295 243.012 293.366 243.012Z" fill="#263238"/>
<path d="M302.765 256.999C302.578 256.594 302.432 256.172 302.328 255.738C302.043 254.822 301.697 253.703 301.311 252.279C300.436 249.36 299.276 245.321 297.832 240.896C296.387 236.471 295.085 232.463 294.109 229.574C293.661 228.211 293.274 227.061 292.969 226.146C292.801 225.737 292.682 225.311 292.613 224.874C292.834 225.26 293.018 225.665 293.163 226.085C293.488 226.868 293.936 228.018 294.465 229.452C295.533 232.31 296.926 236.288 298.33 240.733C299.734 245.179 300.894 249.227 301.667 252.177C302.053 253.652 302.359 254.853 302.542 255.687C302.666 256.114 302.742 256.555 302.765 256.999Z" fill="#263238"/>
<path d="M296.469 216.848C295.556 216.828 294.663 216.588 293.864 216.146C292.997 215.867 292.207 215.39 291.555 214.753C292.435 214.925 293.283 215.234 294.068 215.668C294.923 215.938 295.732 216.336 296.469 216.848Z" fill="#263238"/>
<path d="M301.473 225.556C301.533 224.532 301.77 223.527 302.175 222.585C302.418 221.586 302.831 220.637 303.396 219.778C303.324 220.8 303.083 221.804 302.684 222.748C302.442 223.746 302.033 224.695 301.473 225.556Z" fill="#263238"/>
<path d="M284.048 231.822C284.271 230.889 284.638 229.997 285.136 229.177C285.478 228.278 285.951 227.435 286.54 226.675C286.154 228.572 285.297 230.342 284.048 231.822Z" fill="#263238"/>
<path d="M280.895 237.336C279.988 236.862 279.196 236.196 278.575 235.383C277.825 234.683 277.241 233.824 276.866 232.87C278.332 234.255 279.692 235.748 280.935 237.336H280.895Z" fill="#263238"/>
<path d="M293.488 236.501C292.959 237.604 292.219 238.592 291.311 239.411C290.555 240.226 289.713 240.956 288.798 241.588L288.046 242.046L288.636 241.445C288.778 241.303 288.87 241.242 288.9 241.262C288.931 241.283 288.9 241.394 288.819 241.567L288.656 241.425C289.012 240.998 289.917 240.113 290.935 239.045C291.706 238.121 292.561 237.269 293.488 236.501Z" fill="#263238"/>
<path d="M296.225 254.66C295.216 254.489 294.26 254.093 293.427 253.5C292.501 253.056 291.69 252.406 291.057 251.598C291.988 251.976 292.872 252.461 293.692 253.042C294.6 253.473 295.451 254.016 296.225 254.66Z" fill="#263238"/>
<path d="M283.478 250.509C283.133 251.483 282.62 252.388 281.963 253.184C281.447 254.08 280.787 254.885 280.01 255.565C280.349 254.589 280.863 253.683 281.525 252.889C282.041 251.994 282.701 251.19 283.478 250.509Z" fill="#263238"/>
<path d="M275.116 251.333C274.323 251.041 273.599 250.587 272.99 250C271.902 249.156 271.098 248.373 271.19 248.261C271.281 248.149 272.207 248.739 273.316 249.583C274.425 250.428 275.177 251.211 275.116 251.333Z" fill="#263238"/>
<path d="M270.59 238.943C270.671 239.065 269.878 239.777 268.809 240.54C267.741 241.303 266.775 241.822 266.775 241.7C266.775 241.578 267.477 240.866 268.545 240.103C269.141 239.581 269.836 239.187 270.59 238.943Z" fill="#263238"/>
<path d="M268.86 232.666C268.749 232.758 268.016 231.985 267.223 230.947C266.429 229.91 265.89 228.984 266.002 228.913C266.114 228.842 266.856 229.605 267.64 230.642C268.423 231.68 268.983 232.585 268.86 232.666Z" fill="#263238"/>
<path d="M286.998 215.983C287.167 215.099 287.513 214.259 288.015 213.512C288.365 212.682 288.869 211.926 289.5 211.284C289.328 212.17 288.982 213.014 288.483 213.766C288.136 214.594 287.632 215.347 286.998 215.983Z" fill="#263238"/>
<path d="M264.334 217.041C263.397 216.766 262.516 216.329 261.729 215.75C260.856 215.312 260.067 214.723 259.4 214.01C260.341 214.273 261.225 214.711 262.004 215.302C262.88 215.736 263.669 216.325 264.334 217.041Z" fill="#263238"/>
<path d="M252.462 214C252.595 214.071 252.218 214.946 251.628 215.933C251.038 216.919 250.458 217.682 250.326 217.601C250.194 217.52 250.58 216.665 251.17 215.668C251.76 214.671 252.34 213.929 252.462 214Z" fill="#263238"/>
<path d="M264.812 282.685C263.083 281.976 261.508 280.94 260.173 279.633C261.069 279.916 261.904 280.364 262.635 280.956C263.456 281.4 264.193 281.985 264.812 282.685Z" fill="#263238"/>
<path d="M298.808 279.043C298.92 279.145 298.178 280.121 297.15 281.24C296.123 282.359 295.217 283.173 295.116 283.071C295.014 282.97 295.746 281.993 296.774 280.874C297.801 279.755 298.707 278.941 298.808 279.043Z" fill="#263238"/>
<path d="M275.706 282.858C275.666 281.502 275.666 280.145 275.706 278.789C275.839 278.789 276.205 279.653 276.205 280.823C276.284 281.539 276.107 282.26 275.706 282.858Z" fill="#263238"/>
<path d="M287.73 283.051C286.835 282.809 285.994 282.402 285.248 281.851C284.415 281.446 283.666 280.887 283.041 280.203C284.771 280.844 286.363 281.811 287.73 283.051Z" fill="#263238"/>
<path d="M311.036 286.53C310.833 286.552 310.628 286.552 310.425 286.53L308.676 286.388L302.267 285.818C296.855 285.35 289.378 284.679 281.098 284.546C272.817 284.414 265.3 284.597 259.878 284.801L253.449 285.075L251.699 285.147C251.497 285.175 251.291 285.175 251.089 285.147L251.689 285.055L253.439 284.892C254.944 284.76 257.142 284.607 259.858 284.445C265.29 284.14 272.797 283.875 281.108 284.038C289.419 284.201 296.896 284.903 302.308 285.462C305.003 285.757 307.19 286.011 308.696 286.205L310.435 286.439C310.639 286.444 310.84 286.475 311.036 286.53Z" fill="#263238"/>
<g opacity="0.2">
<path opacity="0.2" d="M292.593 224.874L297.679 258.698C297.679 258.698 302.389 258.698 303.254 257.294L292.593 224.874Z" fill="black"/>
<path opacity="0.2" d="M292.593 224.874L297.679 258.698C297.679 258.698 302.389 258.698 303.254 257.294L292.593 224.874Z" fill="black"/>
</g>
<path d="M263.062 284.475C251.089 285.401 244.548 284.577 231.375 285.818C226.923 286.405 222.829 288.566 219.832 291.909C216.836 295.253 215.135 299.558 215.037 304.047L212.728 403.545H236.929L240.754 314.342L247.874 315.247C246.959 348.654 250.448 403.545 250.448 403.545L277.324 402.233L275.788 316.559C275.788 316.559 311.931 319.011 311.026 286.561C311.036 286.53 282.573 283.082 263.062 284.475Z" fill="#263238"/>
<path d="M270.295 284.221C269.69 284.357 269.079 284.459 268.463 284.526C267.283 284.709 265.574 284.964 263.479 285.35C261.021 285.694 258.613 286.333 256.307 287.252C254.978 287.841 253.746 288.63 252.655 289.592C251.495 290.629 250.554 291.888 249.888 293.295C248.673 296.076 248.082 299.09 248.159 302.125C248.159 304.932 248.261 307.486 248.24 309.622C248.22 311.758 248.149 313.487 248.068 314.708C248.068 315.308 247.986 315.776 247.945 316.081C247.939 316.243 247.915 316.403 247.874 316.559C247.83 315.943 247.83 315.324 247.874 314.708C247.874 313.508 247.874 311.789 247.874 309.622C247.874 307.455 247.752 304.922 247.681 302.125C247.574 299.011 248.168 295.913 249.42 293.061C250.118 291.594 251.104 290.283 252.32 289.205C253.452 288.213 254.732 287.403 256.114 286.805C258.466 285.89 260.923 285.275 263.428 284.974C265.534 284.638 267.263 284.435 268.453 284.323C269.043 284.272 269.471 284.231 269.827 284.221C269.982 284.196 270.14 284.196 270.295 284.221Z" fill="#455A64"/>
<path d="M238.617 308.116C239.14 309.095 239.579 310.115 239.93 311.168C240.448 312.162 240.73 313.262 240.754 314.383C240.231 313.404 239.792 312.383 239.441 311.331C238.917 310.339 238.635 309.238 238.617 308.116Z" fill="#455A64"/>
<path d="M240.591 306.082C241.048 307.39 241.285 308.765 241.293 310.151C241.451 311.55 241.269 312.967 240.764 314.281C240.601 314.281 240.876 312.429 240.764 310.212C240.652 307.994 240.408 306.082 240.591 306.082Z" fill="#455A64"/>
<path d="M273.967 307.964C274.584 309.3 274.993 310.724 275.178 312.185C275.517 313.609 275.738 315.059 275.839 316.519C275.225 315.179 274.826 313.751 274.659 312.287C274.307 310.868 274.075 309.422 273.967 307.964Z" fill="#455A64"/>
<path d="M276.388 307.943C276.994 310.796 276.833 313.759 275.92 316.529C275.93 315.094 276.022 313.661 276.195 312.236C276.184 310.803 276.249 309.37 276.388 307.943Z" fill="#455A64"/>
<path d="M236.308 397.706C236.308 397.848 231.008 397.97 224.467 397.97C217.926 397.97 212.626 397.848 212.626 397.706C212.626 397.563 217.926 397.441 224.467 397.441C231.008 397.441 236.308 397.553 236.308 397.706Z" fill="#455A64"/>
<path d="M276.998 397.258C276.998 397.401 270.966 397.523 263.53 397.523C256.094 397.523 250.062 397.401 250.062 397.258C250.062 397.116 256.094 396.994 263.53 396.994C270.966 396.994 276.998 397.116 276.998 397.258Z" fill="#455A64"/>
<path d="M307.821 301.423H307.486H306.468H302.603L288.361 301.494H278.545C276.74 301.488 274.941 301.693 273.184 302.104C271.332 302.526 269.675 303.553 268.474 305.024C267.336 306.667 266.729 308.62 266.734 310.619C266.633 312.653 266.856 314.779 266.938 316.946C267.046 321.273 267.165 325.732 267.294 330.323C267.813 348.633 268.24 365.225 268.392 377.239C268.474 383.24 268.494 388.103 268.494 391.48C268.494 393.135 268.494 394.427 268.494 395.356C268.494 395.773 268.494 396.099 268.494 396.373C268.51 396.488 268.51 396.604 268.494 396.719C268.481 396.604 268.481 396.488 268.494 396.373C268.494 396.119 268.494 395.793 268.494 395.356C268.494 394.43 268.494 393.138 268.423 391.48C268.352 388.093 268.26 383.24 268.148 377.239C267.894 365.235 267.416 348.644 266.897 330.323C266.775 325.745 266.663 321.279 266.551 316.956C266.47 314.81 266.256 312.684 266.368 310.578C266.367 308.481 267.013 306.434 268.22 304.719C269.488 303.172 271.24 302.097 273.194 301.667C274.992 301.252 276.832 301.048 278.677 301.056H288.493L302.735 301.158L306.601 301.219H307.618C307.692 301.28 307.761 301.348 307.821 301.423Z" fill="#455A64"/>
<path opacity="0.2" d="M245.016 314.85C245.016 314.85 244.08 302.796 248.607 295.868L247.885 315.196L245.016 314.85Z" fill="black"/>
<path d="M246.969 303.386C246.881 303.399 246.792 303.399 246.704 303.386L245.911 303.244C245.209 303.111 244.192 302.908 242.859 302.755C241.255 302.558 239.628 302.655 238.058 303.04C237.086 303.297 236.169 303.727 235.352 304.312C234.457 304.978 233.74 305.855 233.267 306.865C232.249 309.001 232.127 311.677 232.066 314.484C232.005 317.292 231.924 320.323 231.842 323.497C231.669 329.845 231.486 336.823 231.293 344.147C230.866 358.776 230.469 372.02 230.184 381.664C230.021 386.424 229.879 390.3 229.788 393.026C229.727 394.339 229.686 395.376 229.655 396.078C229.655 396.404 229.655 396.668 229.604 396.882C229.618 396.973 229.618 397.065 229.604 397.157C229.589 397.066 229.589 396.973 229.604 396.882C229.604 396.668 229.604 396.404 229.604 396.078C229.604 395.325 229.604 394.288 229.604 393.026C229.655 390.29 229.737 386.424 229.828 381.654C230.072 372.01 230.418 358.765 230.784 344.127C230.998 336.803 231.191 329.835 231.374 323.487C231.466 320.313 231.558 317.292 231.649 314.474C231.741 311.656 231.842 308.93 232.951 306.702C233.462 305.644 234.228 304.728 235.179 304.037C236.031 303.439 236.986 303.004 237.997 302.755C239.607 302.377 241.274 302.308 242.91 302.552C244.243 302.735 245.26 302.979 245.962 303.132L246.745 303.335C246.888 303.345 246.979 303.376 246.969 303.386Z" fill="#455A64"/>
<path d="M245.097 226.654C245.097 226.654 219.554 252.279 214.681 258.006C210.521 262.899 213.237 272.126 216.716 272.522C220.195 272.919 276.51 272.156 276.51 272.156L275.768 260.641C275.768 260.641 239.289 260.804 238.221 260.132C237.153 259.461 259.319 237.051 259.319 237.051L245.097 226.654Z" fill="#FFBE9D"/>
<path d="M312.643 230.001C312.643 230.001 320.405 253.53 321.34 256.307C322.276 259.085 327.098 270.854 317.943 271.841C308.788 272.828 259.654 271.841 259.654 271.841L256.002 259.949C256.002 259.949 303.488 259.827 303.254 257.294C303.02 254.761 296.041 233.511 296.041 233.511L312.643 230.001Z" fill="#FFBE9D"/>
<path d="M208.954 222.667L226.603 271.556L307.852 271.526L307.292 269.135L276.805 268.016L261.8 221.914L208.954 222.667Z" fill="#263238"/>
<path d="M245.168 244.924C245.18 245.475 245.033 246.017 244.745 246.486C244.458 246.956 244.041 247.333 243.546 247.573C243.051 247.813 242.497 247.906 241.95 247.841C241.404 247.776 240.887 247.556 240.462 247.206C240.037 246.856 239.72 246.392 239.551 245.868C239.382 245.345 239.366 244.783 239.506 244.251C239.646 243.718 239.935 243.237 240.341 242.864C240.746 242.492 241.249 242.243 241.791 242.147C242.606 242.073 243.417 242.323 244.05 242.843C244.682 243.363 245.084 244.11 245.168 244.924Z" fill="#FAFAFA"/>
<path d="M349.874 270.488H157.939H155.854H153.778V410.859H157.939V278.758H349.874V410.961H398.937V278.758V270.488H349.874Z" fill="#455A64"/>
<path d="M113.719 405.376V394.868L94.8996 394.746L94.7368 410.462L95.9067 410.543C101.105 410.879 122.355 411.561 125.814 410.452C129.71 409.252 113.719 405.376 113.719 405.376Z" fill="#BA68C8"/>
<path d="M126.262 409.496C126.262 409.669 119.222 409.811 110.535 409.811C101.847 409.811 94.8081 409.669 94.8081 409.496C94.8081 409.323 101.847 409.17 110.535 409.17C119.222 409.17 126.262 409.313 126.262 409.496Z" fill="#263238"/>
<path d="M114.055 407.522C113.902 407.441 114.055 406.881 114.431 406.342C114.807 405.803 115.336 405.498 115.448 405.62C115.56 405.742 115.316 406.21 114.94 406.719C114.563 407.227 114.207 407.604 114.055 407.522Z" fill="#263238"/>
<path d="M115.255 408.214C115.092 408.153 115.174 407.532 115.55 406.881C115.926 406.23 116.404 405.864 116.567 405.935C116.73 406.007 116.476 406.576 116.13 407.187C115.784 407.797 115.469 408.275 115.255 408.214Z" fill="#263238"/>
<path d="M100.474 409.424C100.403 409.475 100.118 409.201 99.7113 408.733C99.2171 408.131 98.6651 407.579 98.0633 407.085C97.475 406.614 96.7735 406.305 96.0288 406.19C95.449 406.108 95.0828 406.19 95.0115 406.108C94.9403 406.027 95.3269 405.783 96.0288 405.742C96.9063 405.723 97.7616 406.019 98.4397 406.576C99.0934 407.102 99.6451 407.743 100.067 408.468C100.403 409.007 100.545 409.374 100.474 409.424Z" fill="#263238"/>
<path d="M114.105 405.549C114.207 405.701 113.882 406.057 113.342 406.261C112.803 406.464 112.325 406.383 112.325 406.21C112.325 406.037 112.681 405.834 113.149 405.661C113.617 405.488 114.014 405.396 114.105 405.549Z" fill="#263238"/>
<path d="M113.811 404.532C113.811 404.704 113.332 404.857 112.692 404.867C112.051 404.877 111.552 404.735 111.562 404.562C111.573 404.389 112.081 404.237 112.692 404.226C113.302 404.216 113.8 404.359 113.811 404.532Z" fill="#263238"/>
<path d="M168.366 91.9801L168.539 88.796C168.849 87.0335 168.981 85.2444 168.935 83.4555C168.933 82.5667 168.774 81.6853 168.467 80.8513C168.131 79.7943 167.652 78.7881 167.043 77.8606C166.891 77.7075 166.792 77.51 166.759 77.2967C166.727 77.0834 166.763 76.8653 166.863 76.674C166.962 76.4826 167.12 76.3279 167.314 76.2321C167.507 76.1364 167.726 76.1046 167.938 76.1414C168.834 76.3754 170.665 78.5014 171.499 81.6753C172.333 84.8491 174.469 80.1494 175.273 78.4506C176.076 76.7518 178.843 71.6146 179.555 71.4519C180.573 71.2077 181.071 72.2962 180.217 73.9747C179.362 75.6531 177.165 80.8615 178.101 81.248C178.765 81.0718 179.458 81.0405 180.135 81.1565C180.242 81.18 180.339 81.2354 180.413 81.3154C180.488 81.3953 180.536 81.496 180.552 81.6041C180.592 82.1023 180.691 82.594 180.847 83.0689C180.847 83.0689 182.109 82.662 182.424 83.2012C182.658 83.7612 182.799 84.3556 182.841 84.961C182.841 84.961 183.797 84.5439 184.306 84.8695C185.395 85.5815 184.214 87.0769 184.214 87.0769C181.62 90.8111 178.79 94.3753 175.741 97.7479L168.345 91.797" fill="#FFBE9D"/>
<path d="M77.8811 91.7665L77.759 132.345L95.1236 133.148L95.622 123.281C95.622 123.281 101.807 124.512 103.404 118.764C104.421 115.102 104.167 86.7514 104.167 86.7514L77.8811 91.7665Z" fill="#FFBE9D"/>
<path d="M103.262 80.4851C97.9617 82.1941 96.6901 82.7739 94.3098 82.957C91.9294 83.1401 75.8161 83.1605 74.3411 92.2446C74.1425 91.8175 73.9891 91.3709 73.8833 90.912C73.7643 90.0215 73.6998 89.1247 73.69 88.2264C73.4346 88.6426 73.274 89.1099 73.2195 89.5951C73.165 90.0803 73.218 90.5716 73.3747 91.034C73.4154 91.232 73.4733 91.426 73.5476 91.6139C73.4357 91.5121 73.334 91.4003 73.2119 91.2985C72.6271 90.781 71.9309 90.4051 71.1774 90.1999C70.5976 90.0575 70.2212 90.088 70.1602 90.1999C71.1075 90.6085 72.0051 91.1238 72.8355 91.7359C73.3748 92.2041 73.8381 92.7532 74.2088 93.3636C74.2088 93.3636 74.2088 93.4449 74.2088 93.4856C74.2088 93.5263 70.74 91.9597 71.6555 98.2464C72.5711 104.533 76.6706 109.874 77.1792 120.168C77.1792 120.168 91.553 121.877 94.1165 116.354L96.2629 110.016C96.2629 110.016 92.8042 109.446 93.2111 106.669C93.7706 102.814 96.7105 102.722 98.9078 104.431L101.431 97.6767C101.431 97.6767 107.819 93.4856 108.185 90.8102C108.551 88.1349 108.511 78.766 103.262 80.4851Z" fill="#263238"/>
<path d="M29.7243 397.523L27.1812 408.875L44.7491 411.052L45.3798 399.801L29.7243 397.523Z" fill="#BA68C8"/>
<path d="M37.6587 398.082C37.6486 399.833 37.4577 401.579 37.089 403.29C36.89 405.019 36.5186 406.723 35.9802 408.377C36.1928 404.884 36.7551 401.422 37.6587 398.041V398.082Z" fill="#263238"/>
<path d="M44.8203 409.842C43.9647 409.814 43.1135 409.708 42.2771 409.526L36.1736 408.509C33.7831 408.112 31.6366 407.715 30.0701 407.37C29.2245 407.23 28.3959 407.001 27.5981 406.688C28.4546 406.704 29.307 406.809 30.1413 407.003L36.2448 408.021C38.6252 408.417 40.7818 408.814 42.3483 409.16C43.1961 409.29 44.0257 409.519 44.8203 409.842Z" fill="#263238"/>
<path d="M55.7863 219.086L23.2341 401.866L51.0866 403.443C51.0866 403.443 80.6683 245.891 85.012 245.504C86.8329 245.331 87.5653 402.161 89.02 401.866C90.4746 401.571 119.121 402.375 119.121 402.375C119.121 402.375 115.245 216.767 115.316 216.767L55.7863 219.086Z" fill="#263238"/>
<path d="M96.9342 241.659C96.9342 241.801 92.1327 242.951 86.1513 244.222C80.1698 245.494 75.287 246.409 75.2565 246.257C75.226 246.104 80.0579 244.965 86.0394 243.693C92.0208 242.422 96.9037 241.517 96.9342 241.659Z" fill="#455A64"/>
<path d="M53.1514 392.711C53.1514 392.864 46.8546 392.782 39.093 392.548C31.3313 392.314 25.0447 391.989 25.0447 391.846C25.0447 391.704 31.3415 391.775 39.1031 392.009C46.8648 392.243 53.1514 392.548 53.1514 392.711Z" fill="#455A64"/>
<path d="M118.937 392.731C118.937 392.874 112.132 392.792 103.76 392.538C95.388 392.284 88.5928 391.968 88.5928 391.826C88.5928 391.684 95.388 391.765 103.77 392.009C112.152 392.253 118.937 392.548 118.937 392.731Z" fill="#455A64"/>
<path d="M69.692 246.725C69.8344 246.725 62.9476 279.358 54.3009 319.54C45.6543 359.721 38.5335 392.284 38.3911 392.253C38.2487 392.223 45.1355 359.63 53.7821 319.428C62.4288 279.226 69.5394 246.694 69.692 246.725Z" fill="#455A64"/>
<path d="M103.882 392.274C103.87 392.148 103.87 392.022 103.882 391.897C103.882 391.623 103.882 391.256 103.821 390.788C103.821 389.771 103.719 388.357 103.638 386.526C103.485 382.833 103.312 377.473 103.119 370.85C102.733 357.626 102.346 339.315 102.254 319.113C102.163 298.91 102.356 280.61 102.621 267.365C102.743 260.743 102.875 255.392 102.997 251.689C103.058 249.858 103.099 248.434 103.14 247.427C103.14 246.959 103.14 246.593 103.14 246.318C103.126 246.193 103.126 246.067 103.14 245.942C103.155 246.067 103.155 246.193 103.14 246.318V247.427C103.14 248.444 103.14 249.858 103.14 251.689C103.089 255.422 103.017 260.773 102.926 267.375C102.763 280.599 102.621 298.91 102.722 319.113C102.824 339.315 103.14 357.606 103.424 370.85C103.577 377.442 103.699 382.793 103.791 386.526C103.791 388.347 103.852 389.781 103.872 390.788C103.872 391.256 103.872 391.623 103.872 391.897C103.891 392.022 103.895 392.148 103.882 392.274Z" fill="#455A64"/>
<path d="M165.446 91.0645C165.446 91.0645 143.881 123.617 142.05 125.417C140.218 127.218 106.446 130.798 106.446 130.798C96.0696 128.459 62.5409 129.232 56.2136 133.85C50.7306 136.902 44.0777 144.023 40.6496 160.838C34.8004 189.606 28.9512 200.206 40.6496 204.224C45.3266 205.819 50.1472 206.957 55.0438 207.622L54.7182 220.642L115.347 216.868L112.295 184.54C111.929 175.456 111.756 165.995 111.532 157.613C115.326 156.179 150.584 142.833 153.005 142.487C155.426 142.141 178.65 99.4264 178.65 99.4264C179.342 94.3503 165.446 91.0645 165.446 91.0645Z" fill="#BA68C8"/>
<path d="M56.7119 149.933C56.8544 149.933 56.5288 165.782 55.9897 185.313C55.4505 204.844 54.8809 220.683 54.7283 220.683C54.5757 220.683 54.9114 204.834 55.4607 185.303C56.01 165.772 56.5695 149.933 56.7119 149.933Z" fill="#263238"/>
<path d="M145.091 132.741C144.282 131.673 143.682 130.462 143.321 129.171C142.802 127.955 142.38 126.7 142.06 125.417C142.863 126.488 143.459 127.699 143.819 128.988C144.332 130.207 144.757 131.462 145.091 132.741Z" fill="#263238"/>
<path d="M147.512 129.975C146.483 129.395 145.515 128.714 144.623 127.94C143.61 127.294 142.738 126.45 142.06 125.458C143.085 126.043 144.052 126.724 144.949 127.492C145.956 128.146 146.827 128.989 147.512 129.975Z" fill="#263238"/>
<path d="M177.44 102.02C176.723 101.677 176.042 101.265 175.405 100.789C174.164 100.006 172.445 98.9482 170.472 97.8903C168.498 96.8323 166.667 95.988 165.324 95.398C164.574 95.1295 163.852 94.7888 163.168 94.3808C163.958 94.5111 164.73 94.7365 165.467 95.0522C169.086 96.4019 172.508 98.2324 175.639 100.494C176.301 100.926 176.906 101.438 177.44 102.02Z" fill="#263238"/>
<path d="M55.9897 185.466C54.7264 185.541 53.4591 185.414 52.236 185.089C50.9767 184.916 49.7617 184.505 48.6553 183.879C49.9043 183.999 51.1401 184.231 52.3479 184.571C53.592 184.729 54.8138 185.03 55.9897 185.466Z" fill="#263238"/>
<path d="M111.99 130.341C110.89 130.529 109.803 130.784 108.734 131.104C106.183 131.939 103.966 133.568 102.406 135.753C100.847 137.939 100.027 140.565 100.067 143.25C100.121 144.364 100.233 145.474 100.403 146.576C100.245 146.313 100.135 146.023 100.078 145.722C99.8544 144.919 99.7247 144.093 99.691 143.26C99.5517 140.473 100.358 137.721 101.979 135.449C103.601 133.178 105.941 131.521 108.622 130.748C109.42 130.507 110.243 130.357 111.074 130.3C111.379 130.257 111.69 130.271 111.99 130.341Z" fill="#263238"/>
<path d="M115.357 216.909C115.357 217.062 101.797 218.018 85.0628 219.055C68.329 220.093 54.7384 220.825 54.7283 220.683C54.7181 220.541 68.2883 219.574 85.0323 218.526C101.776 217.479 115.346 216.767 115.357 216.909Z" fill="#263238"/>
<path d="M91.207 129.7C91.2944 129.944 91.3558 130.196 91.3901 130.453C91.3901 130.707 91.5122 131.012 91.5529 131.378C91.5936 131.745 91.6241 132.182 91.675 132.66C91.7958 135.407 91.3491 138.15 90.3627 140.717C88.9195 144.568 86.2677 147.848 82.8045 150.065C82.3094 150.379 81.7927 150.658 81.2583 150.899C80.7232 151.16 80.1729 151.387 79.6103 151.581C78.4812 151.988 77.3113 152.334 76.1517 152.751C74.9741 153.137 73.8471 153.663 72.7947 154.317C71.7431 155.029 70.8124 155.905 70.038 156.911C68.5875 159.005 67.2496 161.175 66.03 163.412C64.8595 165.55 63.1431 167.34 61.0556 168.6C59.0801 169.598 56.8581 170.004 54.6571 169.77C52.7583 169.596 50.9089 169.068 49.2046 168.213C46.7553 166.974 44.5306 165.334 42.623 163.361C41.9414 162.679 41.4328 162.13 41.0971 161.764C40.9072 161.585 40.7398 161.383 40.5986 161.164C40.7988 161.325 40.989 161.498 41.1683 161.682L42.7654 163.218C44.702 165.109 46.9228 166.684 49.347 167.888C51.0212 168.691 52.8273 169.184 54.6774 169.342C56.7828 169.537 58.9 169.128 60.781 168.162C62.7897 166.941 64.4365 165.206 65.5519 163.137C66.7844 160.879 68.1429 158.692 69.6209 156.586C70.4323 155.535 71.4078 154.621 72.5099 153.88C73.5959 153.199 74.7607 152.652 75.9787 152.252L79.4374 151.103C79.9896 150.916 80.5298 150.695 81.0548 150.442C81.5739 150.218 82.074 149.953 82.5502 149.648C85.9538 147.504 88.5784 144.323 90.0372 140.574C91.0428 138.063 91.5374 135.375 91.4919 132.67C91.4919 132.192 91.4919 131.775 91.4308 131.399C91.3698 131.022 91.3393 130.717 91.3088 130.473C91.2521 130.219 91.2181 129.96 91.207 129.7Z" fill="#263238"/>
<path d="M114.166 204.499C114.166 204.499 113.933 204.336 113.485 204.061C112.846 203.648 112.135 203.358 111.389 203.207C110.19 203.027 108.98 202.918 107.768 202.881C106.354 202.769 104.716 202.759 102.936 202.688C100.964 202.654 99.0031 202.381 97.097 201.874C94.9087 201.252 92.844 200.257 90.9934 198.934C88.9348 197.466 87.2286 195.559 85.9987 193.349C84.6834 190.973 83.984 188.304 83.9642 185.588C83.925 182.951 84.627 180.357 85.9902 178.1C87.3535 175.843 89.3232 174.014 91.675 172.821C92.7325 172.293 93.8592 171.916 95.0218 171.702C96.1075 171.521 97.2067 171.432 98.3075 171.438C100.252 171.498 102.199 171.44 104.136 171.265C105.533 171.176 106.886 170.741 108.073 170.001C109.261 169.261 110.247 168.238 110.942 167.023C111.283 166.342 111.496 165.604 111.572 164.846C111.634 164.327 111.634 164.042 111.654 164.042C111.666 164.11 111.666 164.179 111.654 164.246C111.654 164.388 111.654 164.592 111.654 164.856C111.612 165.638 111.422 166.404 111.094 167.115C110.559 168.239 109.738 169.204 108.714 169.912C107.366 170.857 105.803 171.448 104.167 171.631C102.214 171.835 100.25 171.917 98.2871 171.875C97.2096 171.88 96.1343 171.976 95.0726 172.16C93.9586 172.376 92.8801 172.745 91.8683 173.259C89.607 174.414 87.7141 176.18 86.4036 178.355C85.0931 180.53 84.4173 183.028 84.4525 185.568C84.4774 188.198 85.1556 190.781 86.426 193.085C87.6137 195.229 89.2601 197.084 91.2478 198.517C93.0467 199.82 95.0562 200.804 97.1885 201.426C99.0588 201.946 100.985 202.237 102.926 202.291C104.716 202.383 106.344 202.423 107.768 202.566C108.99 202.621 110.207 202.76 111.41 202.983C112.172 203.179 112.888 203.524 113.515 204C113.681 204.117 113.841 204.243 113.994 204.377C114.058 204.407 114.116 204.448 114.166 204.499Z" fill="#263238"/>
<path d="M80.4749 219.391C80.5025 218.663 80.4616 217.935 80.3528 217.214C79.9753 215.261 78.8514 213.531 77.2197 212.393C76.6825 212.037 76.1011 211.753 75.4903 211.548C74.8246 211.361 74.1439 211.232 73.4558 211.162C71.8501 211.125 70.2533 210.91 68.6951 210.521C67.8392 210.234 67.0575 209.762 66.4063 209.137C65.7491 208.476 65.2243 207.696 64.86 206.838C64.1238 205.039 63.8951 203.072 64.1988 201.152C64.7685 197.235 66.4876 193.868 66.7826 190.552C66.9905 189.004 66.848 187.429 66.3656 185.944C65.9247 184.665 65.1007 183.554 64.0055 182.76C62.3999 181.585 60.4043 181.072 58.431 181.326C57.7165 181.46 57.0153 181.658 56.3354 181.916C56.9494 181.509 57.643 181.239 58.37 181.122C60.4127 180.777 62.509 181.256 64.1988 182.455C65.3746 183.28 66.2664 184.449 66.7521 185.801C67.2777 187.344 67.4447 188.986 67.2404 190.603C66.9454 194.031 65.2059 197.439 64.6973 201.223C64.4051 203.049 64.6161 204.92 65.3076 206.635C65.6479 207.431 66.1305 208.158 66.7318 208.781C67.3239 209.355 68.0363 209.789 68.8172 210.053C70.3418 210.442 71.9037 210.667 73.4762 210.724C74.2076 210.799 74.9299 210.946 75.6328 211.162C76.9326 211.611 78.0826 212.412 78.9552 213.474C79.8279 214.537 80.3891 215.821 80.5766 217.184C80.6511 217.731 80.6511 218.285 80.5766 218.832C80.5602 219.021 80.5261 219.208 80.4749 219.391Z" fill="#263238"/>
<path d="M78.4404 163.107C78.4404 163.107 78.654 162.883 79.1627 162.73C79.8921 162.54 80.6637 162.594 81.3599 162.883C81.8477 163.083 82.2854 163.389 82.6417 163.778C83.0436 164.243 83.2985 164.816 83.3741 165.426C83.4662 166.127 83.3482 166.839 83.0349 167.473C82.7216 168.107 82.2271 168.634 81.6143 168.986C80.9757 169.29 80.2605 169.394 79.562 169.285C78.8634 169.176 78.2138 168.859 77.6978 168.376C77.2466 167.953 76.9344 167.403 76.8026 166.799C76.7016 166.279 76.726 165.742 76.8738 165.233C77.0754 164.503 77.5251 163.866 78.1454 163.432C78.355 163.255 78.6147 163.148 78.888 163.127C78.888 163.127 78.6439 163.279 78.2675 163.595C77.7564 164.051 77.4007 164.656 77.2502 165.324C77.1195 165.803 77.1244 166.308 77.2645 166.785C77.4047 167.261 77.6744 167.688 78.0437 168.02C78.4892 168.422 79.0434 168.683 79.6368 168.772C80.2303 168.861 80.8367 168.772 81.3803 168.518C81.9032 168.212 82.3259 167.761 82.5968 167.219C82.8678 166.677 82.9752 166.068 82.9062 165.467C82.8479 164.975 82.6611 164.507 82.3647 164.111C82.0682 163.715 81.6726 163.403 81.2175 163.208C80.5851 162.905 79.8754 162.802 79.183 162.913C78.7151 163.015 78.4608 163.147 78.4404 163.107Z" fill="#263238"/>
<path d="M47.9432 206.472C47.8313 206.472 48.3094 204.682 48.4213 201.772C48.4615 200.983 48.4615 200.192 48.4213 199.402C48.4213 198.548 48.2585 197.642 48.1466 196.686C47.8092 194.63 47.2673 192.612 46.5292 190.664C45.7589 188.731 44.7907 186.884 43.6402 185.15C43.125 184.403 42.5715 183.684 41.9821 182.994C41.4825 182.375 40.9493 181.784 40.385 181.224C38.3505 179.189 36.7839 178.172 36.8551 178.101C37.2418 178.279 37.607 178.501 37.9436 178.762C38.3655 179.031 38.7698 179.327 39.1541 179.647C39.6768 180.056 40.176 180.494 40.6495 180.959C41.2404 181.508 41.7976 182.093 42.3178 182.709C42.9241 183.409 43.4945 184.139 44.0268 184.896C45.2159 186.65 46.2151 188.526 47.0073 190.491C47.7563 192.463 48.2917 194.509 48.6044 196.594C48.7337 197.512 48.8118 198.435 48.8384 199.361C48.8904 200.164 48.8904 200.97 48.8384 201.772C48.8012 202.433 48.7299 203.092 48.6248 203.746C48.563 204.243 48.4678 204.736 48.3399 205.221C48.26 205.653 48.1268 206.073 47.9432 206.472Z" fill="#263238"/>
<path d="M153.493 142.08C152.972 141.894 152.466 141.669 151.978 141.408C151.011 140.961 149.618 140.32 147.827 139.669C145.749 138.899 143.593 138.357 141.398 138.052C138.719 137.667 135.99 137.802 133.362 138.448C130.711 139.065 128.26 140.346 126.241 142.171C124.611 143.659 123.365 145.52 122.61 147.593C122.113 148.995 121.905 150.483 121.999 151.968C122.081 152.985 122.243 153.595 122.192 153.605C122.142 153.616 122.121 153.473 122.04 153.198C121.931 152.801 121.85 152.396 121.796 151.988C121.616 150.466 121.776 148.924 122.264 147.471C122.985 145.308 124.241 143.363 125.916 141.815C127.963 139.919 130.465 138.581 133.179 137.929C135.876 137.273 138.674 137.149 141.419 137.563C143.642 137.901 145.819 138.492 147.909 139.323C149.303 139.873 150.662 140.508 151.978 141.225C152.446 141.48 152.812 141.683 153.046 141.836C153.209 141.888 153.361 141.971 153.493 142.08Z" fill="#263238"/>
<path d="M161.825 96.5272C161.825 96.5272 161.927 96.5984 162.1 96.7714C162.354 97.0099 162.589 97.2684 162.802 97.5445C163.606 98.5544 164.242 99.6881 164.683 100.901C165.349 102.709 165.623 104.636 165.487 106.557C165.33 108.917 164.57 111.198 163.28 113.18C161.957 115.149 160.135 116.732 158 117.767C156.281 118.627 154.405 119.125 152.487 119.232C151.197 119.315 149.903 119.195 148.652 118.876C148.305 118.796 147.965 118.69 147.634 118.561C147.41 118.48 147.299 118.429 147.309 118.408C148.973 118.803 150.687 118.954 152.395 118.856C154.255 118.701 156.066 118.183 157.725 117.33C159.776 116.316 161.528 114.788 162.812 112.895C163.938 111.152 164.657 109.178 164.914 107.119C165.171 105.06 164.96 102.969 164.297 101.003C163.703 99.3952 162.87 97.8862 161.825 96.5272Z" fill="#263238"/>
<path d="M95.4084 129.557C92.4713 129.848 89.5192 129.96 86.5685 129.893C83.6206 130.004 80.6688 129.939 77.7285 129.7C80.6656 129.409 83.6177 129.297 86.5685 129.364C89.5163 129.254 92.4682 129.318 95.4084 129.557Z" fill="#263238"/>
</svg>
