<svg width="558" height="416" viewBox="0 0 558 416" fill="none" xmlns="http://www.w3.org/2000/svg">
<path d="M501.461 383.856H464.545V384.134H501.461V383.856Z" fill="#EBEBEB"/>
<path d="M369.18 386.887H359.494V387.166H369.18V386.887Z" fill="#EBEBEB"/>
<path d="M463.431 373.512H442.042V373.791H463.431V373.512Z" fill="#EBEBEB"/>
<path d="M106.612 375.385H58.4722V375.663H106.612V375.385Z" fill="#EBEBEB"/>
<path d="M123.598 375.385H116.543V375.663H123.598V375.385Z" fill="#EBEBEB"/>
<path d="M250.953 380.088H146.537V380.367H250.953V380.088Z" fill="#EBEBEB"/>
<path d="M264.161 316.21H48.9421C47.2561 316.207 45.6402 315.535 44.449 314.342C43.2579 313.149 42.5889 311.532 42.5889 309.846V7.30866C42.6035 5.63233 43.279 4.02947 44.4686 2.84826C45.6581 1.66704 47.2657 1.00287 48.9421 1H264.161C265.849 1 267.468 1.67053 268.661 2.86409C269.855 4.05764 270.526 5.67645 270.526 7.36439V309.846C270.526 311.534 269.855 313.153 268.661 314.346C267.468 315.54 265.849 316.21 264.161 316.21ZM48.9421 1.22292C47.33 1.22587 45.7849 1.86835 44.646 3.00933C43.5072 4.15031 42.8675 5.69655 42.8675 7.30866V309.846C42.8675 311.458 43.5072 313.004 44.646 314.145C45.7849 315.286 47.33 315.929 48.9421 315.932H264.161C265.774 315.929 267.32 315.287 268.461 314.146C269.602 313.005 270.244 311.459 270.247 309.846V7.30866C270.244 5.69553 269.602 4.14931 268.461 3.00865C267.32 1.86799 265.774 1.22587 264.161 1.22292H48.9421Z" fill="#EBEBEB"/>
<path d="M505.261 316.21H290.031C288.344 316.207 286.727 315.536 285.534 314.343C284.341 313.15 283.669 311.533 283.667 309.846V7.30866C283.684 5.63131 284.362 4.02847 285.553 2.84756C286.745 1.66665 288.353 1.00284 290.031 1H505.261C506.936 1.0058 508.54 1.67127 509.727 2.85217C510.915 4.03307 511.589 5.63425 511.603 7.30866V309.846C511.603 311.53 510.936 313.145 509.747 314.338C508.558 315.531 506.945 316.204 505.261 316.21ZM290.031 1.22292C288.418 1.22587 286.872 1.86799 285.731 3.00865C284.59 4.14931 283.948 5.69553 283.945 7.30866V309.846C283.948 311.459 284.59 313.005 285.731 314.146C286.872 315.287 288.418 315.929 290.031 315.932H505.261C506.874 315.929 508.42 315.287 509.561 314.146C510.702 313.005 511.344 311.459 511.347 309.846V7.30866C511.344 5.69553 510.702 4.14931 509.561 3.00865C508.42 1.86799 506.874 1.22587 505.261 1.22292H290.031Z" fill="#EBEBEB"/>
<path d="M557.302 365.922H0V366.2H557.302V365.922Z" fill="#EBEBEB"/>
<path d="M320.984 278.581H237.567V356.314H320.984V278.581Z" fill="#E6E6E6"/>
<path d="M250.83 358.755H240.186V365.543H250.83V358.755Z" fill="#E0E0E0"/>
<path d="M490.392 278.581H320.995V355.556H490.392V278.581Z" fill="#E6E6E6"/>
<path d="M503.31 272.863H492.666V365.554H503.31V272.863Z" fill="#E6E6E6"/>
<path d="M402.673 284.712H329.243V351.967H402.673V284.712Z" fill="#F5F5F5"/>
<path d="M341.648 351.967H361.254L368.321 284.712H348.715L341.648 351.967Z" fill="#FAFAFA"/>
<path d="M366.271 351.967H370.172L377.238 284.712H373.337L366.271 351.967Z" fill="#FAFAFA"/>
<path d="M318.944 284.712H245.514V351.967H318.944V284.712Z" fill="#F5F5F5"/>
<path d="M487.216 284.712H413.786V351.967H487.216V284.712Z" fill="#F5F5F5"/>
<path d="M489.958 272.863H234.535V365.554H240.22V360.36H487.082V365.554H492.767V272.863H489.958ZM240.22 281.245H318.242V313.446H240.22V281.245ZM240.22 351.967V318.239H318.242V351.967H240.22ZM402.684 351.967H323.926V281.245H402.684V351.967ZM487.116 351.967H408.358V318.239H487.082L487.116 351.967ZM487.116 313.446H408.358V281.245H487.082L487.116 313.446Z" fill="#F0F0F0"/>
<path d="M280.023 296.103C281.906 296.103 283.433 294.576 283.433 292.692C283.433 290.808 281.906 289.281 280.023 289.281C278.139 289.281 276.612 290.808 276.612 292.692C276.612 294.576 278.139 296.103 280.023 296.103Z" fill="#EBEBEB"/>
<path d="M280.023 296.103C279.371 296.101 278.734 295.912 278.186 295.559C277.639 295.205 277.205 294.701 276.935 294.108C276.694 294.627 276.587 295.2 276.625 295.771C276.663 296.343 276.845 296.896 277.153 297.379C277.461 297.863 277.886 298.26 278.389 298.536C278.891 298.811 279.455 298.956 280.028 298.956C280.601 298.956 281.165 298.811 281.668 298.536C282.17 298.26 282.595 297.863 282.904 297.379C283.212 296.896 283.393 296.343 283.432 295.771C283.47 295.2 283.363 294.627 283.121 294.108C282.85 294.702 282.414 295.206 281.865 295.56C281.315 295.913 280.676 296.102 280.023 296.103Z" fill="#E0E0E0"/>
<path d="M283.433 332.327C283.433 333.002 283.233 333.661 282.858 334.222C282.484 334.783 281.951 335.22 281.328 335.478C280.705 335.737 280.019 335.804 279.357 335.673C278.696 335.541 278.088 335.216 277.611 334.739C277.134 334.262 276.809 333.654 276.677 332.993C276.546 332.331 276.613 331.645 276.871 331.022C277.13 330.399 277.567 329.866 278.128 329.492C278.689 329.117 279.348 328.917 280.023 328.917C280.927 328.917 281.795 329.276 282.434 329.916C283.074 330.555 283.433 331.423 283.433 332.327Z" fill="#EBEBEB"/>
<path d="M280.023 335.738C279.37 335.744 278.729 335.557 278.18 335.203C277.632 334.848 277.199 334.341 276.935 333.743C276.694 334.263 276.587 334.835 276.625 335.407C276.663 335.979 276.845 336.532 277.153 337.015C277.461 337.498 277.886 337.896 278.389 338.171C278.891 338.447 279.455 338.591 280.028 338.591C280.601 338.591 281.165 338.447 281.668 338.171C282.17 337.896 282.595 337.498 282.904 337.015C283.212 336.532 283.393 335.979 283.432 335.407C283.47 334.835 283.363 334.263 283.121 333.743C282.857 334.343 282.423 334.851 281.872 335.206C281.321 335.561 280.678 335.746 280.023 335.738Z" fill="#E0E0E0"/>
<path d="M452.161 296.103C454.045 296.103 455.572 294.576 455.572 292.692C455.572 290.808 454.045 289.281 452.161 289.281C450.278 289.281 448.75 290.808 448.75 292.692C448.75 294.576 450.278 296.103 452.161 296.103Z" fill="#EBEBEB"/>
<path d="M452.161 296.103C451.508 296.101 450.87 295.912 450.321 295.558C449.771 295.204 449.335 294.701 449.063 294.108C448.856 294.551 448.75 295.034 448.751 295.523C448.746 296.036 448.856 296.542 449.074 297.006C449.292 297.47 449.611 297.879 450.008 298.202C450.406 298.525 450.871 298.755 451.369 298.874C451.868 298.993 452.387 298.998 452.887 298.889C453.388 298.78 453.857 298.56 454.261 298.244C454.665 297.929 454.992 297.526 455.219 297.067C455.446 296.608 455.567 296.103 455.572 295.591C455.577 295.078 455.466 294.571 455.249 294.108C454.98 294.701 454.545 295.205 453.998 295.559C453.451 295.912 452.813 296.101 452.161 296.103Z" fill="#E0E0E0"/>
<path d="M395.752 320.312C395.749 320.986 395.547 321.644 395.171 322.204C394.795 322.763 394.262 323.199 393.638 323.455C393.015 323.712 392.33 323.777 391.669 323.645C391.008 323.512 390.401 323.186 389.925 322.709C389.449 322.231 389.126 321.623 388.995 320.962C388.864 320.301 388.932 319.616 389.191 318.993C389.449 318.37 389.886 317.838 390.447 317.464C391.008 317.09 391.667 316.89 392.341 316.89C392.79 316.89 393.234 316.979 393.649 317.151C394.063 317.323 394.44 317.575 394.757 317.893C395.073 318.211 395.324 318.588 395.495 319.003C395.666 319.418 395.753 319.863 395.752 320.312Z" fill="#EBEBEB"/>
<path d="M392.341 323.723C391.688 323.72 391.049 323.531 390.5 323.178C389.951 322.824 389.515 322.321 389.242 321.728C389.036 322.171 388.93 322.654 388.93 323.143C388.925 323.655 389.036 324.162 389.254 324.626C389.471 325.09 389.791 325.499 390.188 325.822C390.586 326.145 391.051 326.375 391.549 326.494C392.047 326.613 392.566 326.618 393.067 326.509C393.567 326.4 394.037 326.18 394.441 325.864C394.845 325.549 395.172 325.146 395.399 324.687C395.626 324.228 395.746 323.723 395.751 323.211C395.757 322.698 395.646 322.191 395.428 321.728C395.159 322.321 394.725 322.825 394.178 323.178C393.63 323.532 392.993 323.721 392.341 323.723Z" fill="#E0E0E0"/>
<path d="M455.572 332.327C455.572 333.002 455.372 333.661 454.997 334.222C454.622 334.783 454.09 335.22 453.466 335.478C452.843 335.737 452.157 335.804 451.496 335.673C450.834 335.541 450.226 335.216 449.749 334.739C449.272 334.262 448.948 333.654 448.816 332.993C448.684 332.331 448.752 331.645 449.01 331.022C449.268 330.399 449.705 329.866 450.266 329.492C450.827 329.117 451.487 328.917 452.161 328.917C453.066 328.917 453.933 329.276 454.573 329.916C455.213 330.555 455.572 331.423 455.572 332.327Z" fill="#EBEBEB"/>
<path d="M452.162 335.738C451.508 335.739 450.868 335.551 450.319 335.197C449.769 334.843 449.333 334.338 449.063 333.743C448.816 334.265 448.705 334.84 448.741 335.416C448.776 335.992 448.956 336.549 449.265 337.037C449.574 337.525 450.001 337.926 450.506 338.204C451.012 338.483 451.579 338.628 452.156 338.628C452.733 338.628 453.301 338.483 453.806 338.204C454.312 337.926 454.739 337.525 455.047 337.037C455.356 336.549 455.536 335.992 455.572 335.416C455.607 334.84 455.496 334.265 455.249 333.743C454.986 334.341 454.553 334.848 454.004 335.203C453.456 335.557 452.815 335.744 452.162 335.738Z" fill="#E0E0E0"/>
<path d="M159.11 55.2478H88.0981V147.504H159.11V55.2478Z" fill="#F5F5F5"/>
<path d="M153.637 62.3478H93.5596V140.404H153.637V62.3478Z" fill="#EBEBEB"/>
<path d="M149.881 67.2298H97.3164V135.522H149.881V67.2298Z" fill="#EBEBEB"/>
<path d="M115.875 105.817L97.3164 124.387V135.522H145.579L115.875 105.817Z" fill="#FAFAFA"/>
<path d="M142.669 91.9072C142.669 93.3357 142.246 94.7321 141.452 95.9199C140.659 97.1076 139.531 98.0334 138.211 98.58C136.891 99.1267 135.439 99.2697 134.038 98.991C132.637 98.7123 131.35 98.0245 130.34 97.0144C129.329 96.0043 128.642 94.7173 128.363 93.3162C128.084 91.9152 128.227 90.463 128.774 89.1432C129.321 87.8234 130.246 86.6954 131.434 85.9018C132.622 85.1081 134.018 84.6845 135.447 84.6845C137.362 84.6845 139.199 85.4455 140.554 86.8C141.908 88.1545 142.669 89.9916 142.669 91.9072Z" fill="white"/>
<path d="M62.9639 255.999C62.9639 246.514 74.1099 238.478 89.5472 235.736L74.3105 217.523H128.179L112.909 235.736C128.335 238.478 139.504 246.514 139.504 255.999C139.504 266.454 125.961 342.872 108.105 359.658L113.734 366.345H88.7224L94.3623 359.658C76.5063 342.872 62.9639 266.454 62.9639 255.999Z" fill="#F0F0F0"/>
<path d="M121.86 334.356C115.44 329.697 111.015 320.033 111.015 308.832C111.015 293.093 119.742 280.32 130.52 280.32C132.334 280.342 134.125 280.721 135.792 281.435C132.705 297.485 127.856 317.938 121.86 334.356Z" fill="#E0E0E0"/>
<path d="M74.6786 240.707C81.8455 244.92 86.9393 255.197 86.9393 267.145C86.9393 281.791 79.3823 293.896 69.6629 295.456C65.4831 276.82 63.031 260.447 63.031 255.999C62.9641 249.992 67.4448 244.575 74.6786 240.707Z" fill="#E6E6E6"/>
<path d="M442.666 173.441C443.05 173.441 443.419 173.593 443.691 173.865C443.962 174.137 444.115 174.505 444.115 174.889V266.655C444.115 267.039 443.962 267.408 443.691 267.68C443.419 267.951 443.05 268.104 442.666 268.104V173.441Z" fill="#E0E0E0"/>
<path d="M442.677 173.441H284.113V268.104H442.677V173.441Z" fill="#EBEBEB"/>
<path d="M440.057 176.049H286.721V265.496H440.057V176.049Z" fill="#E0E0E0"/>
<path opacity="0.1" d="M347.322 265.496H370.483L384.65 176.049H361.488L347.322 265.496Z" fill="#FAFAFA"/>
<path opacity="0.2" d="M374.608 265.496H379.802L393.969 176.049H388.775L374.608 265.496Z" fill="#FAFAFA"/>
<path d="M383.48 268.104V271.448H388.195C388.471 271.448 388.744 271.393 388.999 271.287C389.254 271.181 389.486 271.026 389.68 270.83C389.875 270.634 390.029 270.402 390.134 270.146C390.239 269.891 390.292 269.617 390.29 269.341V268.059L383.48 268.104Z" fill="#E0E0E0"/>
<path d="M383.948 271.492H341.325C340.438 271.492 339.588 271.14 338.961 270.513C338.334 269.886 337.981 269.035 337.981 268.148H387.381C387.381 268.595 387.292 269.037 387.118 269.449C386.944 269.861 386.69 270.233 386.37 270.545C386.05 270.857 385.671 271.101 385.255 271.264C384.839 271.426 384.394 271.504 383.948 271.492Z" fill="#F0F0F0"/>
<path d="M278.651 415.644C398.006 415.644 494.762 409.995 494.762 403.027C494.762 396.059 398.006 390.41 278.651 390.41C159.297 390.41 62.5405 396.059 62.5405 403.027C62.5405 409.995 159.297 415.644 278.651 415.644Z" fill="#F5F5F5"/>
<path d="M396.81 389.863L396.564 397.064L389.576 397.654L389.264 389.763L396.81 389.863Z" fill="#B55B52"/>
<path d="M385.653 398.423C384.813 398.536 383.96 398.338 383.256 397.866C383.172 397.745 383.127 397.601 383.127 397.454C383.127 397.306 383.172 397.163 383.256 397.041C383.319 396.928 383.404 396.829 383.505 396.748C383.606 396.668 383.723 396.608 383.847 396.573C385.196 396.161 388.06 397.688 388.183 397.777C388.217 397.795 388.244 397.822 388.262 397.856C388.28 397.89 388.288 397.928 388.283 397.966C388.274 398.005 388.254 398.041 388.227 398.07C388.2 398.1 388.165 398.121 388.127 398.134C387.312 398.303 386.484 398.4 385.653 398.423ZM384.326 396.885C384.202 396.887 384.078 396.906 383.958 396.941C383.88 396.956 383.806 396.989 383.742 397.038C383.678 397.086 383.627 397.148 383.591 397.22C383.457 397.465 383.501 397.576 383.591 397.643C383.981 398.156 386.02 398.111 387.525 397.888C386.516 397.346 385.41 397.006 384.271 396.885H384.326Z" fill="#BA68C8"/>
<path d="M388.027 398.123H387.949C386.979 397.721 384.984 396.016 385.129 395.102C385.129 394.879 385.307 394.612 385.831 394.545C386.027 394.512 386.229 394.521 386.421 394.573C386.613 394.625 386.792 394.718 386.945 394.846C388.004 395.659 388.272 397.844 388.283 397.944C388.288 397.977 388.283 398.01 388.269 398.04C388.255 398.069 388.233 398.094 388.205 398.111C388.181 398.133 388.15 398.146 388.118 398.148C388.085 398.15 388.053 398.141 388.027 398.123ZM385.965 394.901H385.853C385.519 394.901 385.496 395.08 385.485 395.124C385.485 395.67 386.756 397.008 387.714 397.576C387.605 396.664 387.215 395.807 386.6 395.124C386.407 394.98 386.172 394.901 385.931 394.901H385.965Z" fill="#BA68C8"/>
<path d="M388.863 396.974L397.68 396.74C397.843 396.738 398.002 396.79 398.131 396.89C398.261 396.989 398.353 397.129 398.393 397.287L400.176 404.42C400.254 404.723 400.209 405.045 400.05 405.314C399.891 405.584 399.632 405.779 399.329 405.858H399.073C395.896 405.858 393.065 405.78 389.042 405.858C384.371 405.98 385.575 406.504 380.125 406.727C376.781 406.861 376.101 403.116 377.505 402.893C383.914 401.912 384.527 399.95 386.946 397.588C387.488 397.155 388.171 396.937 388.863 396.974Z" fill="#263238"/>
<path d="M350.253 384.814L347.712 397.978L340.522 395.57L342.93 383.008L350.253 384.814Z" fill="#B55B52"/>
<path d="M336.187 393.82C335.217 393.519 334.281 393.04 334.091 392.527C334.047 392.385 334.048 392.233 334.094 392.091C334.14 391.949 334.229 391.825 334.347 391.736C334.544 391.562 334.799 391.471 335.061 391.479C336.454 391.479 338.683 393.898 338.784 393.998C338.806 394.031 338.817 394.07 338.817 394.11C338.817 394.15 338.806 394.188 338.784 394.221C338.766 394.255 338.738 394.283 338.704 394.301C338.671 394.319 338.632 394.326 338.594 394.322C337.779 394.221 336.974 394.053 336.187 393.82ZM335.417 391.936C335.299 391.894 335.175 391.871 335.05 391.87C334.971 391.859 334.891 391.867 334.816 391.892C334.74 391.917 334.672 391.959 334.615 392.014C334.403 392.204 334.414 392.327 334.448 392.405C334.66 393.018 336.599 393.631 338.092 393.898C337.334 393.079 336.426 392.414 335.417 391.936Z" fill="#BA68C8"/>
<path d="M338.583 394.311C338.573 394.315 338.562 394.318 338.55 394.318C338.538 394.318 338.527 394.315 338.517 394.311C337.714 393.619 336.365 391.368 336.8 390.554C336.889 390.354 337.123 390.142 337.636 390.242C337.824 390.279 338.003 390.353 338.162 390.46C338.321 390.567 338.457 390.706 338.561 390.866C339.297 391.981 338.862 394.132 338.851 394.21C338.841 394.243 338.824 394.273 338.801 394.298C338.778 394.323 338.749 394.343 338.717 394.355L338.583 394.311ZM337.658 390.599H337.558C337.213 390.532 337.157 390.655 337.123 390.699C336.923 391.212 337.736 392.928 338.517 393.753C338.697 392.848 338.592 391.91 338.216 391.067C338.089 390.861 337.89 390.71 337.658 390.643V390.599Z" fill="#BA68C8"/>
<path d="M339.731 393.486L348.18 396.072C348.333 396.121 348.466 396.22 348.557 396.353C348.648 396.487 348.691 396.646 348.681 396.807L348.102 404.141C348.092 404.298 348.051 404.451 347.982 404.592C347.912 404.733 347.816 404.859 347.698 404.963C347.58 405.066 347.442 405.145 347.294 405.196C347.145 405.246 346.988 405.267 346.831 405.256H346.586C343.565 404.275 340.901 403.272 337.112 402.113C332.653 400.742 333.612 401.633 328.34 400.095C325.152 399.159 325.676 395.381 327.08 395.637C333.456 396.752 334.671 395.091 337.713 393.619C338.346 393.325 339.065 393.277 339.731 393.486Z" fill="#263238"/>
<path opacity="0.2" d="M348.736 392.94L349.283 389.83L342.004 387.846L341.402 390.967L348.736 392.94Z" fill="black"/>
<path opacity="0.2" d="M396.721 393.631L396.81 389.195L389.309 389.306L389.375 393.631H396.721Z" fill="black"/>
<path d="M401.134 243.282L367.462 236.616L362.402 258.607L349.116 316.333L338.003 388.147L350.509 391L367.027 319.32L383.769 265.195L401.847 266.432L401.134 243.282Z" fill="#263238"/>
<path d="M338.003 384.212L352.348 387.422L350.799 391.557L337.089 388.08L338.003 384.212Z" fill="#BA68C8"/>
<path d="M397.757 318.261L402.862 265.707C403.519 259.51 403.421 253.256 402.572 247.082L402.004 246.938L393.923 245.89L381.663 248.944L379.244 317.436C379.21 317.989 379.21 318.544 379.244 319.097L385.006 390.644L399.028 389.997L397.757 318.261Z" fill="#263238"/>
<path opacity="0.3" d="M381.127 273.677L378.898 263.044L378.441 282.427L381.127 273.677Z" fill="black"/>
<path d="M369.011 195.153L356.528 211.192C355.856 217.914 356.35 224.701 357.988 231.255C357.988 231.255 362.591 234.599 362.446 236.94C362.301 239.28 363.951 244.742 363.951 244.742L360.284 246.614L356.227 245.845L354.611 240.15L353.875 233.306C353.875 233.306 343.844 213.433 349.417 205.184C353.419 199.564 357.701 194.148 362.246 188.956L369.011 195.153Z" fill="#B55B52"/>
<path d="M372.69 187.34C372.69 187.34 372.98 193.793 361.789 206.02L351.156 197.516L356.606 191.018C359.688 187.343 364.092 185.029 368.867 184.575L372.69 187.34Z" fill="#BA68C8"/>
<path opacity="0.2" d="M369.558 195.788L370.494 194.083C367.852 195.855 360.63 202.554 359.917 203.925L362.068 205.708C364.933 202.697 367.446 199.369 369.558 195.788Z" fill="black"/>
<path d="M360.842 208.562L362.603 206.165L351.301 196.747L349.461 198.809L360.842 208.562Z" fill="#BA68C8"/>
<path opacity="0.5" d="M360.842 208.562L362.603 206.165L351.301 196.747L349.461 198.809L360.842 208.562Z" fill="white"/>
<path d="M401.257 224.423C401.803 214.982 403.72 187.752 403.72 187.752C401.181 186.502 398.507 185.545 395.751 184.899C392.53 186.593 385.352 190.215 382.922 190.204C380.759 190.204 379.266 185.946 378.553 183.271C375.106 183.437 371.677 183.873 368.298 184.575C366.428 191.284 365.398 198.199 365.233 205.162C365.01 214.647 364.887 229.26 365.601 244.563C365.601 244.563 372.857 249.88 389.91 249.356C394.202 249.193 398.451 248.443 402.539 247.127C402.539 247.127 400.956 230.33 401.257 224.423Z" fill="#BA68C8"/>
<path d="M412.815 196.468L420.461 203.156C420.461 203.156 427.149 193.559 432.12 187.25C432.12 187.25 430.894 183.015 433.179 180.418L434.294 176.483L437.883 175.369L442.809 181.755L436.746 189.747C436.746 189.747 426.101 212.786 422.334 213.377C418.567 213.967 407.766 204.059 407.766 204.059L412.815 196.468Z" fill="#B55B52"/>
<path d="M398.449 186.08C398.449 186.08 403.576 185.757 416.171 196.535L408.034 207.447L400.076 201.974L395.038 190.728L398.449 186.08Z" fill="#BA68C8"/>
<path d="M418.745 197.393L416.293 195.71L407.254 207.336L409.383 209.097L418.745 197.393Z" fill="#BA68C8"/>
<path opacity="0.5" d="M418.745 197.393L416.293 195.71L407.254 207.336L409.383 209.097L418.745 197.393Z" fill="white"/>
<path opacity="0.2" d="M403.118 196.858C402.974 198.965 402.806 201.317 402.639 203.735L405.47 205.686C405.125 202.644 404.332 199.669 403.118 196.858Z" fill="black"/>
<path d="M393.009 184.274C390.635 181.666 392.519 171.144 392.519 171.144L384.449 174.388C384.449 174.388 383.814 181.655 381.807 183.193C381.016 183.795 379.801 183.193 378.753 183.26L381.128 190.082L386.522 190.449L396.23 185.021C395.238 184.754 393.812 185.144 393.009 184.274Z" fill="#B55B52"/>
<path opacity="0.1" d="M383.602 179.426C385.574 179.203 387.442 178.423 388.988 177.178C390.533 175.932 391.692 174.273 392.329 172.393C392.441 171.624 392.519 171.144 392.519 171.144L384.449 174.388C384.282 176.085 383.999 177.768 383.602 179.426Z" fill="black"/>
<path d="M379.723 182.725L383.468 190.36L377.594 194.027L377.093 182.859L379.723 182.725Z" fill="#BA68C8"/>
<path opacity="0.5" d="M379.723 182.725L383.468 190.36L377.594 194.027L377.093 182.859L379.723 182.725Z" fill="white"/>
<path d="M395.395 184.107L382.443 190.059L387.124 195.833L397.758 185.099L395.395 184.107Z" fill="#BA68C8"/>
<path opacity="0.5" d="M395.395 184.107L382.443 190.059L387.124 195.833L397.758 185.099L395.395 184.107Z" fill="white"/>
<path d="M379.356 148.574C378.99 147.727 378.895 146.788 379.085 145.886C379.274 144.983 379.739 144.162 380.415 143.535C381.092 142.908 381.945 142.506 382.859 142.384C383.774 142.262 384.703 142.427 385.519 142.856C387.322 141.783 389.352 141.149 391.445 141.006C393.539 140.863 395.636 141.214 397.568 142.031C399.347 142.903 400.88 144.207 402.026 145.822C403.173 147.438 403.897 149.315 404.133 151.282C406.195 153.177 408.413 155.741 409.082 158.438C409.509 159.809 409.47 161.283 408.971 162.629C408.701 163.288 408.215 163.836 407.594 164.184C406.973 164.532 406.252 164.66 405.549 164.546C405.348 165.727 404.81 166.825 403.999 167.707C403.188 168.589 402.139 169.218 400.979 169.517L391.772 173.307H392.352C387.671 173.307 383.101 170.164 380.615 166.196C378.13 162.228 377.271 157.435 377.193 152.753C377.16 151.082 377.706 148.997 379.356 148.574Z" fill="#263238"/>
<path d="M398.616 161.626C395.941 168.703 394.96 171.746 390.178 174.321C382.978 178.2 374.875 173.362 375.365 165.638C375.822 158.683 380.124 148.239 388.06 147.593C389.811 147.436 391.574 147.728 393.18 148.442C394.787 149.156 396.185 150.268 397.242 151.673C398.299 153.078 398.98 154.729 399.22 156.471C399.46 158.213 399.252 159.987 398.616 161.626Z" fill="#B55B52"/>
<path d="M386.533 159.965C386.344 160.544 385.887 160.923 385.508 160.812C385.129 160.701 384.962 160.121 385.129 159.53C385.296 158.939 385.775 158.56 386.154 158.672C386.533 158.783 386.667 159.396 386.533 159.965Z" fill="#263238"/>
<path d="M379.891 157.925C379.701 158.527 379.244 158.895 378.865 158.783C378.486 158.672 378.319 158.081 378.497 157.502C378.676 156.922 379.144 156.532 379.523 156.655C379.902 156.777 380.08 157.346 379.891 157.925Z" fill="#263238"/>
<path d="M381.606 159.619C380.671 160.802 379.575 161.849 378.352 162.729C378.589 163.031 378.887 163.28 379.227 163.459C379.567 163.637 379.941 163.742 380.324 163.766L381.606 159.619Z" fill="#842828"/>
<path d="M389.609 159.452C389.533 159.441 389.463 159.406 389.409 159.352C389.355 159.297 389.32 159.227 389.308 159.151C389.134 158.59 388.846 158.071 388.463 157.626C388.079 157.182 387.608 156.82 387.079 156.565C387.034 156.546 386.993 156.518 386.96 156.483C386.926 156.447 386.9 156.405 386.883 156.359C386.867 156.313 386.859 156.264 386.862 156.215C386.865 156.166 386.879 156.119 386.901 156.075C386.92 156.033 386.947 155.995 386.981 155.963C387.016 155.932 387.056 155.908 387.099 155.892C387.143 155.876 387.189 155.87 387.236 155.872C387.282 155.875 387.327 155.887 387.369 155.908C388.007 156.21 388.572 156.647 389.025 157.187C389.479 157.728 389.811 158.359 389.999 159.04C390.016 159.133 389.994 159.229 389.94 159.306C389.885 159.383 389.803 159.436 389.71 159.452H389.598H389.609Z" fill="#263238"/>
<path d="M378.843 154.247C378.762 154.24 378.685 154.205 378.627 154.149C378.568 154.093 378.53 154.018 378.52 153.937C378.51 153.857 378.527 153.775 378.57 153.706C378.612 153.636 378.677 153.583 378.753 153.556C379.285 153.311 379.87 153.204 380.454 153.243C381.038 153.282 381.603 153.466 382.097 153.779C382.136 153.803 382.17 153.834 382.197 153.871C382.224 153.909 382.243 153.951 382.253 153.995C382.264 154.04 382.265 154.086 382.257 154.131C382.25 154.176 382.233 154.219 382.209 154.258C382.155 154.334 382.073 154.386 381.982 154.403C381.89 154.419 381.795 154.399 381.718 154.347C381.326 154.119 380.885 153.987 380.432 153.962C379.978 153.936 379.525 154.019 379.11 154.202C379.072 154.23 379.028 154.249 378.982 154.257C378.935 154.264 378.888 154.261 378.843 154.247Z" fill="#263238"/>
<path d="M379.779 166.296C381.711 166.715 383.717 166.654 385.62 166.118C385.62 166.118 385.553 169.929 380.76 169.294L379.868 169.138C380.085 168.199 380.054 167.22 379.779 166.296Z" fill="#263238"/>
<path d="M380.57 166.43V167.31C382.13 167.765 383.791 167.745 385.34 167.254C385.484 166.899 385.57 166.522 385.597 166.14C383.967 166.628 382.245 166.727 380.57 166.43Z" fill="white"/>
<path d="M384.839 168.124C384.432 168.076 384.022 168.058 383.613 168.068C381.985 168.068 380.681 168.637 380.503 169.25H380.759C382.988 169.584 384.192 168.926 384.839 168.124Z" fill="#C13B37"/>
<path d="M398.86 167.778C398.007 168.931 396.733 169.7 395.316 169.918C393.432 170.175 392.741 168.436 393.466 166.775C394.134 165.282 395.918 163.353 397.723 163.81C398.344 163.994 398.867 164.416 399.176 164.985C399.485 165.553 399.556 166.221 399.373 166.842C399.272 167.188 399.097 167.507 398.86 167.778Z" fill="#B55B52"/>
<path d="M395.26 146.512C396.036 146.544 396.789 146.787 397.437 147.215C398.085 147.643 398.604 148.24 398.938 148.941C399.674 150.301 401.981 153.868 401.992 155.417C401.992 159.597 402.182 161.748 396.519 165.571C396.972 164.642 397.218 163.626 397.241 162.593C397.264 161.56 397.064 160.534 396.653 159.586C395.661 159.185 394.602 159.263 394.045 158.338C393.488 157.412 393.621 154.994 394.68 154.804C392.808 154.715 391.214 153.021 390.478 151.293C389.584 151.544 388.641 151.574 387.732 151.38C386.824 151.186 385.976 150.774 385.262 150.179C384.682 150.833 383.923 151.302 383.079 151.527C382.234 151.753 381.343 151.726 380.514 151.449C381.575 148.717 383.652 146.5 386.31 145.263C387.608 144.779 388.991 144.561 390.375 144.623C391.76 144.684 393.118 145.023 394.368 145.62L395.26 146.512Z" fill="#263238"/>
<path d="M440.558 171.289C440.558 171.289 441.561 169.929 442.074 171.122C442.341 171.746 437.927 178.924 437.927 178.924L436.077 177.932L440.558 171.289Z" fill="#B55B52"/>
<path d="M383.791 385.55L399.496 384.692L399.317 389.93L384.192 390.276L383.791 385.55Z" fill="#BA68C8"/>
<path d="M237.166 140.103C237.825 141.745 238.654 143.314 239.64 144.784C239.436 145.085 239.151 145.322 238.817 145.468C238.484 145.614 238.116 145.663 237.756 145.609L237.166 140.103Z" fill="#DF5753"/>
<path d="M237.021 137.595C237.533 137.539 238.013 138.13 238.135 138.91C238.258 139.69 237.868 140.359 237.366 140.404C236.865 140.448 236.385 139.88 236.252 139.099C236.118 138.319 236.519 137.651 237.021 137.595Z" fill="#263238"/>
<path d="M214.238 151.583C215.955 157.156 218.162 167.455 214.562 171.646C214.562 171.646 216.735 177.219 227.313 176.104C238.938 174.889 232.25 169.762 232.25 169.762C225.752 168.904 225.418 164.189 226.064 159.642L214.238 151.583Z" fill="#E58A7B"/>
<path d="M209.791 138.943C211.374 148.373 211.842 152.408 217.148 156.777C225.139 163.364 236.386 159.363 237.667 149.699C238.782 140.927 237.433 128.667 227.703 125.858C220.792 123.818 212.165 126.103 210.126 133.014C209.558 134.938 209.444 136.968 209.791 138.943Z" fill="#B55B52"/>
<path d="M211.273 172.649C211.148 172.099 211.235 171.521 211.519 171.033C211.802 170.545 212.26 170.182 212.8 170.019C217.025 168.904 226.655 166.396 231.648 166.563C235.36 166.697 236.541 168.726 236.876 170.453C236.984 171.014 236.865 171.594 236.545 172.066C236.225 172.538 235.731 172.864 235.171 172.972H234.825L213.469 174.221C212.982 174.235 212.503 174.089 212.106 173.805C211.71 173.521 211.417 173.115 211.273 172.649Z" fill="#BA68C8"/>
<path opacity="0.6" d="M211.273 172.649C211.148 172.099 211.235 171.521 211.519 171.033C211.802 170.545 212.26 170.182 212.8 170.019C217.025 168.904 226.655 166.396 231.648 166.563C235.36 166.697 236.541 168.726 236.876 170.453C236.984 171.014 236.865 171.594 236.545 172.066C236.225 172.538 235.731 172.864 235.171 172.972H234.825L213.469 174.221C212.982 174.235 212.503 174.089 212.106 173.805C211.71 173.521 211.417 173.115 211.273 172.649Z" fill="black"/>
<path d="M205.835 182.681L199.66 200.514L214.005 219.641L208.432 223.375C208.432 223.375 192.192 210.345 188.302 202.844C187.432 201.15 198.333 176.194 198.333 176.194L205.835 182.681Z" fill="#B55B52"/>
<path d="M203.204 196.178L188.246 188.655C188.246 188.655 195.591 171.646 200.595 169.818C217.894 165.46 203.204 196.178 203.204 196.178Z" fill="#BA68C8"/>
<path d="M214.004 219.641L221.182 223.72C221.182 223.72 223.846 230.787 222.442 231.389C221.037 231.991 215.865 233.741 215.865 233.741C215.865 233.741 212.767 229.449 211.407 228.435C210.047 227.421 208.42 223.375 208.42 223.375L214.004 219.641Z" fill="#B55B52"/>
<path d="M248.725 170.576C248.725 170.576 246.562 181.388 250.196 228.937L212.21 228.803C211.196 212.842 209.245 207.28 198.255 175.581C203.589 173.887 209.039 172.584 214.562 171.679C220.405 170.629 226.317 170.01 232.251 169.829C239.93 169.718 248.725 170.576 248.725 170.576Z" fill="#BA68C8"/>
<path d="M260.472 147.593C260.472 147.593 260.472 146.043 261.509 146.657C262.055 146.991 262.556 154.715 262.556 154.715L260.639 154.96L260.472 147.593Z" fill="#B55B52"/>
<path d="M253.016 177.431L258.589 186.626C260.108 179.65 261.118 172.572 261.609 165.449C261.609 165.449 260.495 162.785 259.068 158.761L259.38 153.957C259.396 153.706 259.466 153.461 259.587 153.24C259.708 153.019 259.875 152.827 260.079 152.678C260.282 152.529 260.515 152.426 260.763 152.378C261.01 152.329 261.265 152.336 261.509 152.397L267.082 153.812C267.489 153.915 267.844 154.164 268.081 154.511C268.317 154.858 268.418 155.28 268.364 155.696L267.049 165.382C267.049 165.382 269.456 198.051 262.512 199.444C255.134 200.86 246.328 182.134 246.328 182.134L253.016 177.431Z" fill="#B55B52"/>
<path opacity="0.2" d="M248.189 192.489L240.387 178.768L243.385 192.144C245.213 197.572 248.279 195.454 248.189 192.489Z" fill="black"/>
<path d="M254.431 174.377C258.109 182.179 259.201 183.438 259.201 183.438L248.189 192.489C248.189 192.489 234.903 173.909 236.196 168.737C236.987 165.594 245.715 159.006 254.431 174.377Z" fill="#BA68C8"/>
<path d="M234.602 131.409C235.061 134.204 234.733 137.071 233.654 139.69C231.86 143.647 232.183 150.97 234.858 154.37C237.009 157.1 240.71 158.037 243.207 160.466C245.703 162.896 247.197 166.418 245.692 169.907C244.343 173.006 238.336 172.326 236.653 175.213C234.357 179.114 235.438 186.76 230.143 186.816C222.609 186.949 220.814 180.284 215.587 181.488C210.359 182.692 202.423 184.653 200.339 176.595C199.057 171.646 202.512 168.146 203.014 163.487C203.382 160.143 201.119 157.535 200.629 154.37C200.375 152.735 200.447 151.066 200.841 149.459C201.235 147.852 201.943 146.339 202.925 145.007C204.351 143.056 206.269 141.663 207.004 139.222C207.617 137.316 207.996 135.343 208.576 133.415C209.077 131.378 210.133 129.519 211.627 128.046C213.12 126.572 214.992 125.541 217.036 125.067C229.508 122.247 233.398 126.393 234.602 131.409Z" fill="#263238"/>
<path d="M230.4 142.165C230.59 143.974 231.294 145.691 232.428 147.114C233.922 148.93 235.371 148.027 235.538 145.899C235.683 144.015 235.081 140.783 233.309 139.679C231.537 138.576 230.188 139.98 230.4 142.165Z" fill="#B55B52"/>
<path d="M240.009 128.344C240.394 129.143 240.464 130.057 240.206 130.906C239.948 131.755 239.38 132.475 238.615 132.925C238.633 133.745 238.477 134.559 238.158 135.315C237.839 136.071 237.364 136.751 236.765 137.31C236.165 137.87 235.454 138.297 234.678 138.563C233.902 138.829 233.079 138.928 232.262 138.854C233.722 138.13 233.744 135.956 232.908 134.563C231.359 131.988 226.678 129.38 230.077 126.326C232.674 124.008 238.582 125.256 240.009 128.344Z" fill="#263238"/>
<path d="M238.413 136.603C237.95 136.467 237.461 136.444 236.988 136.537C236.514 136.63 236.07 136.836 235.693 137.138L235.593 137.216C235.509 137.255 235.414 137.263 235.325 137.239C235.236 137.214 235.158 137.159 235.106 137.083C235.054 137.006 235.031 136.914 235.04 136.822C235.05 136.73 235.092 136.644 235.158 136.581C235.623 136.204 236.171 135.944 236.756 135.82C237.341 135.696 237.947 135.712 238.525 135.867C238.598 135.886 238.664 135.925 238.715 135.98C238.767 136.035 238.801 136.104 238.814 136.178C238.827 136.253 238.818 136.329 238.788 136.399C238.759 136.468 238.71 136.527 238.647 136.569C238.574 136.603 238.493 136.614 238.413 136.603Z" fill="#263238"/>
<path d="M212.21 228.803C212.21 228.803 204.998 238.935 198.411 273.621C189.728 310.258 168.763 385.082 168.763 385.082L183.598 388.336C183.598 388.336 214.194 301.208 222.23 274.948C227.298 259.063 233.654 243.619 241.234 228.769L212.21 228.803Z" fill="#263238"/>
<path d="M227.603 228.803C227.603 228.803 229.497 290.296 228.873 318.874C226.065 346.305 226.822 378.74 227.502 388.972H241.747C241.747 388.972 251.778 297.162 254.665 270.523C257.463 244.887 250.207 228.937 250.207 228.937L227.603 228.803Z" fill="#263238"/>
<path opacity="0.3" d="M237.087 259.354C236.263 259.165 232.072 257.983 227.714 251.998C226.476 250.293 223.667 244.608 223.667 244.608C224.219 248.09 225.112 251.51 226.331 254.818C228.104 258.986 234.568 262.364 237.087 259.354Z" fill="black"/>
<path d="M238.525 400.564C238.484 400.558 238.445 400.539 238.417 400.508C238.388 400.478 238.371 400.438 238.369 400.396C238.357 400.358 238.36 400.316 238.376 400.279C238.393 400.242 238.422 400.213 238.458 400.196C238.614 400.129 241.557 398.457 242.917 398.836C243.051 398.864 243.178 398.921 243.29 399.001C243.401 399.082 243.494 399.185 243.563 399.304C243.65 399.43 243.696 399.58 243.696 399.733C243.696 399.886 243.65 400.036 243.563 400.162C243.207 400.664 242.215 400.809 241.089 400.809C240.229 400.798 239.372 400.716 238.525 400.564ZM242.46 399.148C241.284 399.3 240.148 399.679 239.116 400.263C240.676 400.474 242.805 400.463 243.195 399.928C243.285 399.85 243.329 399.739 243.195 399.493C243.157 399.418 243.102 399.353 243.034 399.303C242.967 399.253 242.888 399.219 242.805 399.204H242.426L242.46 399.148Z" fill="#BA68C8"/>
<path d="M238.414 400.519C238.385 400.5 238.362 400.473 238.346 400.442C238.33 400.41 238.323 400.375 238.325 400.341C238.325 400.24 238.515 397.989 239.64 397.097C239.792 396.966 239.97 396.869 240.162 396.811C240.354 396.753 240.556 396.737 240.755 396.763C241.301 396.818 241.49 397.097 241.49 397.32C241.647 398.301 239.64 400.084 238.615 400.541H238.526C238.507 400.545 238.487 400.545 238.468 400.541C238.448 400.538 238.43 400.53 238.414 400.519ZM240.643 397.175C240.381 397.18 240.131 397.284 239.941 397.465C239.313 398.196 238.924 399.103 238.827 400.062C239.874 399.438 241.234 398.011 241.145 397.431C241.145 397.431 241.145 397.209 240.744 397.209H240.632L240.643 397.175Z" fill="#BA68C8"/>
<path d="M230.143 385.316L238.547 384.201L237.7 400.341H229.296L230.143 385.316Z" fill="#B55B52"/>
<path d="M239.64 400.029C245.325 403.54 247.075 403.696 253.662 405.133C255.1 405.446 254.141 408.945 250.697 408.945C244.99 408.945 244.388 408.667 239.551 408.667C235.382 408.667 230.634 408.867 227.29 408.923C227.187 408.935 227.082 408.935 226.978 408.923C226.667 408.847 226.399 408.65 226.232 408.377C226.065 408.103 226.013 407.775 226.087 407.463L227.736 399.984C227.774 399.823 227.865 399.679 227.994 399.576C228.124 399.473 228.284 399.416 228.449 399.416H237.645C238.354 399.433 239.044 399.645 239.64 400.029Z" fill="#263238"/>
<path opacity="0.2" d="M230.132 385.327L229.698 391.892H238.124L238.548 385.327H230.132Z" fill="black"/>
<path d="M225.395 383.934L225.874 389.206H243.195C243.195 389.206 244.065 383.298 243.998 383.298L225.395 383.934Z" fill="#BA68C8"/>
<path d="M168.305 400.463C168.301 400.503 168.283 400.54 168.254 400.568C168.226 400.597 168.189 400.614 168.149 400.619C168.11 400.63 168.067 400.626 168.03 400.608C167.993 400.589 167.964 400.558 167.949 400.519C167.871 400.374 166.21 397.42 166.611 396.06C166.642 395.931 166.699 395.81 166.777 395.703C166.856 395.595 166.955 395.505 167.068 395.436C167.197 395.345 167.351 395.295 167.509 395.295C167.666 395.295 167.82 395.345 167.949 395.436C168.428 395.793 168.562 396.796 168.562 397.911C168.547 398.767 168.462 399.621 168.305 400.463ZM166.935 396.529C167.057 397.699 167.405 398.835 167.96 399.872C168.194 398.312 168.194 396.183 167.659 395.793C167.592 395.704 167.458 395.659 167.213 395.793C167.141 395.834 167.079 395.89 167.031 395.957C166.983 396.025 166.95 396.102 166.935 396.183C166.913 396.308 166.913 396.437 166.935 396.562V396.529Z" fill="#BA68C8"/>
<path d="M168.305 400.541C168.288 400.572 168.262 400.597 168.229 400.611C168.197 400.626 168.161 400.628 168.126 400.619C168.037 400.619 165.764 400.419 164.905 399.304C164.775 399.151 164.678 398.974 164.618 398.782C164.559 398.59 164.539 398.389 164.56 398.189C164.615 397.643 164.905 397.454 165.128 397.454C166.076 397.309 167.881 399.337 168.327 400.341V400.419C168.335 400.461 168.327 400.504 168.305 400.541ZM164.961 398.312C164.972 398.567 165.07 398.811 165.24 399.003C165.966 399.633 166.869 400.022 167.826 400.118C167.201 399.07 165.786 397.699 165.217 397.788C165.217 397.788 164.994 397.788 164.994 398.178V398.301L164.961 398.312Z" fill="#BA68C8"/>
<path d="M172.028 384.324L180.221 384.948L176.442 401.054L168.228 400.463L172.028 384.324Z" fill="#B55B52"/>
<path opacity="0.2" d="M172.128 383.867L170.467 390.956L178.671 391.546L180.343 384.435L172.128 383.867Z" fill="black"/>
<path d="M166.243 399.393C164.014 402.012 162.899 403.361 156.435 405.379C155.019 405.813 156.29 409.213 159.778 408.912C165.463 408.399 162.331 408.41 167.168 407.987C171.315 407.619 176.085 407.396 179.429 407.151C179.542 407.149 179.655 407.131 179.763 407.095C180.072 406.995 180.328 406.778 180.476 406.489C180.625 406.201 180.653 405.866 180.555 405.557L178.236 398.256C178.188 398.097 178.086 397.959 177.948 397.865C177.81 397.772 177.644 397.729 177.478 397.744L168.327 398.557C167.941 398.548 167.558 398.618 167.2 398.762C166.841 398.905 166.516 399.12 166.243 399.393Z" fill="#263238"/>
<path d="M166.99 382.362L166.912 387.667L184.745 389.573C184.745 389.573 186.272 383.789 186.205 383.789L166.99 382.362Z" fill="#BA68C8"/>
<path d="M97.0378 156.131L92.1001 156.097L90.7515 154.359L98.42 154.403L97.0378 156.131Z" fill="#BA68C8"/>
<path opacity="0.5" d="M97.0378 156.131L92.1001 156.097L90.7515 154.359L98.42 154.403L97.0378 156.131Z" fill="white"/>
<path d="M105.486 133.961C105.473 135.449 105.139 136.917 104.506 138.264C103.873 139.61 102.957 140.804 101.819 141.763C101.057 142.382 100.439 143.159 100.008 144.041C99.5765 144.922 99.3426 145.887 99.3223 146.868V147.66L89.9039 147.593V146.802C89.8934 145.823 89.6718 144.859 89.2544 143.974C88.837 143.089 88.2335 142.305 87.4852 141.674C86.3637 140.708 85.4644 139.51 84.8488 138.163C84.2332 136.817 83.9158 135.353 83.9185 133.872C83.9295 132.457 84.2191 131.057 84.7709 129.754C85.3227 128.45 86.1258 127.268 87.1345 126.275C88.1431 125.282 89.3374 124.497 90.6493 123.966C91.9612 123.434 93.3649 123.166 94.7803 123.177C96.1957 123.188 97.5951 123.478 98.8986 124.03C100.202 124.582 101.384 125.385 102.377 126.393C103.37 127.402 104.155 128.596 104.686 129.908C105.218 131.22 105.486 132.624 105.475 134.039L105.486 133.961Z" fill="#BA68C8"/>
<path opacity="0.5" d="M105.486 133.961C105.473 135.449 105.139 136.917 104.506 138.264C103.873 139.61 102.957 140.804 101.819 141.763C101.057 142.382 100.439 143.159 100.008 144.041C99.5765 144.922 99.3426 145.887 99.3223 146.868V147.66L89.9039 147.593V146.802C89.8934 145.823 89.6718 144.859 89.2544 143.974C88.837 143.089 88.2335 142.305 87.4852 141.674C86.3637 140.708 85.4644 139.51 84.8488 138.163C84.2332 136.817 83.9158 135.353 83.9185 133.872C83.9295 132.457 84.2191 131.057 84.7709 129.754C85.3227 128.45 86.1258 127.268 87.1345 126.275C88.1431 125.282 89.3374 124.497 90.6493 123.966C91.9612 123.434 93.3649 123.166 94.7803 123.177C96.1957 123.188 97.5951 123.478 98.8986 124.03C100.202 124.582 101.384 125.385 102.377 126.393C103.37 127.402 104.155 128.596 104.686 129.908C105.218 131.22 105.486 132.624 105.475 134.039L105.486 133.961Z" fill="white"/>
<path d="M93.1139 147.604L91.3974 139.077C91.3893 139.043 91.3885 139.008 91.395 138.974C91.4015 138.94 91.4153 138.907 91.4353 138.879C91.4553 138.851 91.4812 138.827 91.5112 138.809C91.5412 138.791 91.5746 138.78 91.6092 138.776C91.6422 138.768 91.6766 138.767 91.7101 138.773C91.7436 138.779 91.7755 138.792 91.8038 138.81C91.8321 138.829 91.8562 138.854 91.8745 138.883C91.8928 138.911 91.9049 138.943 91.9101 138.977L93.6266 147.504L93.1139 147.604Z" fill="#BA68C8"/>
<path d="M96.1679 147.626L95.644 147.526L97.5054 139.022C97.5214 138.954 97.5629 138.896 97.621 138.858C97.6792 138.821 97.7497 138.808 97.8175 138.821C97.8516 138.827 97.884 138.841 97.9127 138.86C97.9414 138.88 97.9659 138.905 97.9846 138.934C98.0034 138.963 98.016 138.996 98.0218 139.03C98.0276 139.064 98.0263 139.099 98.0182 139.133L96.1679 147.626Z" fill="#BA68C8"/>
<path d="M95.7442 142.622L94.6854 140.749L93.6153 142.599L91.6313 140.359L92.0326 140.025L93.5262 141.719L94.6965 139.679L95.8446 141.73L97.3604 140.058L97.7617 140.404L95.7442 142.622Z" fill="#BA68C8"/>
<path d="M100.091 148.942C100.071 149.246 99.9356 149.531 99.7116 149.739C99.4877 149.946 99.1928 150.06 98.8877 150.056H97.6727C97.5802 150.068 97.4866 150.068 97.3941 150.056H90.3721C90.0646 150.056 89.7698 149.934 89.5524 149.717C89.335 149.499 89.2129 149.204 89.2129 148.897C89.2129 148.59 89.335 148.295 89.5524 148.077C89.7698 147.86 90.0646 147.738 90.3721 147.738H91.6204C91.7018 147.726 91.7843 147.726 91.8656 147.738H98.8877C99.0466 147.735 99.2045 147.764 99.3519 147.823C99.4993 147.883 99.6332 147.971 99.7456 148.084C99.858 148.196 99.9466 148.33 100.006 148.477C100.065 148.625 100.094 148.783 100.091 148.942Z" fill="#BA68C8"/>
<path d="M99.6572 151.16C99.6572 151.455 99.5397 151.739 99.3307 151.948C99.1217 152.157 98.8382 152.274 98.5426 152.274H97.428C97.3466 152.285 97.2641 152.285 97.1827 152.274H90.6512C90.5 152.274 90.3503 152.244 90.2113 152.184C90.0723 152.125 89.9469 152.038 89.8426 151.928C89.7384 151.819 89.6575 151.689 89.6048 151.548C89.5522 151.406 89.529 151.255 89.5366 151.104C89.5366 150.808 89.654 150.525 89.863 150.316C90.072 150.107 90.3555 149.989 90.6512 149.989H91.7658H91.9887H98.5203C98.6733 149.986 98.8254 150.014 98.967 150.072C99.1086 150.131 99.2368 150.217 99.3434 150.327C99.4501 150.437 99.533 150.567 99.587 150.711C99.641 150.854 99.6649 151.007 99.6572 151.16Z" fill="#BA68C8"/>
<path d="M99.1996 153.389C99.2005 153.67 99.0954 153.94 98.9053 154.147C98.7152 154.354 98.4541 154.481 98.1742 154.503H97.1265H96.8924L90.8512 154.448C90.5615 154.425 90.2921 154.29 90.1005 154.071C89.9089 153.852 89.8104 153.568 89.8258 153.277C89.8247 152.998 89.9282 152.729 90.116 152.523C90.3038 152.316 90.5622 152.188 90.8401 152.163H91.9547H92.1665H98.2076C98.3533 152.178 98.4945 152.222 98.6232 152.292C98.7519 152.362 98.8656 152.456 98.9577 152.57C99.0499 152.684 99.1187 152.815 99.1602 152.955C99.2017 153.096 99.2151 153.243 99.1996 153.389Z" fill="#BA68C8"/>
<path d="M90.5288 155.128V154.492L98.5985 154.537V155.161L90.5288 155.128Z" fill="#BA68C8"/>
<path d="M99.3116 147.247H89.9043V147.883H99.3116V147.247Z" fill="#BA68C8"/>
<g opacity="0.4">
<path opacity="0.4" d="M85.1668 131.988C84.9976 132.521 84.9557 133.086 85.0442 133.638C85.0865 133.781 85.1723 133.906 85.2897 133.998C85.407 134.089 85.55 134.142 85.6986 134.148C85.8472 134.154 85.9941 134.114 86.1185 134.032C86.243 133.951 86.3389 133.832 86.3929 133.694C86.7943 132.667 87.423 131.745 88.2319 130.996C89.0407 130.247 90.0086 129.691 91.0631 129.369C92.7015 128.879 94.719 128.823 95.2317 126.85C95.2962 126.493 95.2536 126.124 95.1091 125.791C93.7604 123.027 86.482 126.661 85.1668 131.988Z" fill="white"/>
</g>
<path opacity="0.4" d="M96.3234 126.36C96.2422 126.634 96.2399 126.926 96.3168 127.202C96.3936 127.478 96.5465 127.727 96.7581 127.92C97.1389 128.198 97.6022 128.339 98.0733 128.321C98.3137 128.356 98.5588 128.338 98.7916 128.268C99.0244 128.199 99.2394 128.08 99.422 127.92C99.5801 127.682 99.6645 127.403 99.6645 127.118C99.6645 126.832 99.5801 126.553 99.422 126.315C98.6752 124.721 96.8249 124.376 96.3234 126.36Z" fill="white"/>
<path d="M98.4308 158.784V161.704C97.1954 161.852 95.9523 161.926 94.708 161.927C93.4601 161.926 92.2133 161.851 90.9741 161.704V158.784H98.4308Z" fill="#263238"/>
<path d="M94.7085 398.1V189.87" stroke="#263238" stroke-width="4" stroke-linecap="round" stroke-linejoin="round"/>
<path d="M125.95 131.621C125.906 137.619 124.081 143.47 120.708 148.431C117.335 153.391 112.565 157.239 107.002 159.486C104.506 160.459 102.355 162.153 100.825 164.352C99.2947 166.552 98.4534 169.157 98.4085 171.836V189.892H90.9741V171.836C90.9301 169.158 90.0905 166.554 88.5622 164.355C87.0339 162.155 84.886 160.461 82.3916 159.486C76.8301 157.238 72.0608 153.39 68.6877 148.429C65.3145 143.469 63.4894 137.619 63.4434 131.621H125.95Z" fill="#BA68C8"/>
<path d="M59.7316 401.143L59.9657 401.333L59.3638 401.244L59.7316 401.143Z" fill="#BA68C8"/>
<path d="M130.409 401.255L129.818 401.333C129.897 401.279 129.971 401.219 130.041 401.154L130.409 401.255Z" fill="#BA68C8"/>
<path d="M130.409 400.463C130.399 400.598 130.361 400.729 130.298 400.848C130.234 400.967 130.147 401.071 130.041 401.154C129.971 401.219 129.897 401.279 129.818 401.333C126.786 403.562 112.296 405.278 94.8863 405.278C77.4762 405.278 63.0309 403.584 59.9769 401.344L59.7428 401.154C59.6368 401.071 59.5494 400.967 59.4861 400.848C59.4227 400.729 59.3849 400.598 59.375 400.463C59.375 399.26 62.5851 398.167 67.8906 397.32C75.4551 396.098 82.9343 394.397 90.283 392.226L91.654 391.836H98.0072L99.4673 392.249C106.745 394.393 114.154 396.064 121.648 397.253C127.065 398.134 130.409 399.237 130.409 400.463Z" fill="#263238"/>
<path d="M299.36 149.343L283.633 143.993L281.192 136.803L305.669 145.107L299.36 149.343Z" fill="#BA68C8"/>
<path opacity="0.5" d="M299.36 149.343L283.633 143.993L281.192 136.803L305.669 145.107L299.36 149.343Z" fill="white"/>
<path d="M350.664 85.1972C349.009 90.0331 346.352 94.4649 342.866 98.2027C339.379 101.94 335.143 104.9 330.434 106.887C327.299 108.154 324.468 110.073 322.131 112.517C319.794 114.962 318.005 117.876 316.881 121.065L315.989 123.673L285.973 113.475L286.853 110.867C287.901 107.657 288.255 104.261 287.892 100.904C287.529 97.5473 286.457 94.3059 284.747 91.3945C281.016 84.8489 279.413 77.3053 280.159 69.8083C280.906 62.3113 283.965 55.2319 288.913 49.5504C293.861 43.869 300.453 39.8666 307.776 38.0976C315.1 36.3286 322.792 36.8804 329.788 39.6768C338.4 43.1914 345.351 49.853 349.229 58.3081C353.107 66.7632 353.62 76.3774 350.664 85.1972Z" fill="#BA68C8"/>
<path opacity="0.5" d="M350.664 85.1972C349.009 90.0331 346.352 94.4649 342.866 98.2027C339.379 101.94 335.143 104.9 330.434 106.887C327.299 108.154 324.468 110.073 322.131 112.517C319.794 114.962 318.005 117.876 316.881 121.065L315.989 123.673L285.973 113.475L286.853 110.867C287.901 107.657 288.255 104.261 287.892 100.904C287.529 97.5473 286.457 94.3059 284.747 91.3945C281.016 84.8489 279.413 77.3053 280.159 69.8083C280.906 62.3113 283.965 55.2319 288.913 49.5504C293.861 43.869 300.453 39.8666 307.776 38.0976C315.1 36.3286 322.792 36.8804 329.788 39.6768C338.4 43.1914 345.351 49.853 349.229 58.3081C353.107 66.7632 353.62 76.3774 350.664 85.1972Z" fill="white"/>
<path opacity="0.4" d="M331.727 98.4986C337.834 87.3152 333.72 73.2981 322.536 67.1906C311.353 61.083 297.336 65.1979 291.228 76.3813C285.121 87.5647 289.235 101.582 300.419 107.689C311.602 113.797 325.619 109.682 331.727 98.4986Z" fill="white"/>
<path d="M296.183 117.042L299.972 87.0809C300.003 86.8449 300.125 86.6305 300.313 86.4844C300.501 86.3383 300.739 86.2723 300.975 86.3007C301.092 86.3158 301.204 86.3538 301.306 86.4124C301.408 86.4711 301.497 86.5493 301.568 86.6425C301.64 86.7357 301.692 86.8421 301.722 86.9556C301.753 87.0691 301.76 87.1874 301.744 87.3039L297.955 117.264L296.183 117.042Z" fill="#BA68C8"/>
<path d="M305.892 120.374L304.354 119.482L319.59 93.4007C319.709 93.1973 319.903 93.0491 320.131 92.9886C320.359 92.928 320.601 92.96 320.805 93.0775C320.908 93.1352 320.999 93.2131 321.072 93.3067C321.144 93.4002 321.197 93.5074 321.227 93.6218C321.257 93.7363 321.264 93.8556 321.247 93.9728C321.23 94.0899 321.19 94.2024 321.128 94.3036L305.892 120.374Z" fill="#BA68C8"/>
<path d="M310.027 103.399L308.723 96.0981L303.228 101.08L299.349 91.5839L300.999 90.904L303.919 98.0486L309.904 92.5982L311.342 100.568L317.996 96.6777L318.899 98.2158L310.027 103.399Z" fill="#BA68C8"/>
<path d="M317.004 128.845C316.659 129.855 315.928 130.686 314.971 131.158C314.015 131.63 312.91 131.704 311.899 131.364L308.02 130.06C307.712 130.036 307.409 129.972 307.117 129.871L284.702 122.302C284.2 122.139 283.734 121.879 283.332 121.535C282.93 121.192 282.599 120.773 282.359 120.302C282.119 119.831 281.974 119.318 281.932 118.791C281.891 118.264 281.953 117.734 282.117 117.231C282.28 116.728 282.54 116.262 282.884 115.86C283.227 115.458 283.646 115.128 284.117 114.888C284.588 114.648 285.101 114.503 285.628 114.461C286.155 114.419 286.685 114.482 287.188 114.645H287.277L291.156 115.949C291.433 115.973 291.706 116.029 291.97 116.116H292.059L314.474 123.685C314.981 123.854 315.449 124.122 315.852 124.475C316.254 124.827 316.583 125.255 316.818 125.735C317.054 126.216 317.191 126.738 317.223 127.272C317.255 127.806 317.18 128.34 317.004 128.845Z" fill="#BA68C8"/>
<path d="M313.203 135.733C313.058 136.221 312.818 136.676 312.496 137.071C312.174 137.466 311.778 137.793 311.33 138.034C310.881 138.276 310.39 138.426 309.883 138.477C309.376 138.528 308.865 138.478 308.377 138.33L304.766 137.116C304.482 137.093 304.201 137.037 303.93 136.948L283.109 129.871C282.167 129.486 281.404 128.76 280.975 127.837C280.545 126.914 280.481 125.863 280.794 124.894C281.107 123.925 281.774 123.111 282.663 122.614C283.551 122.116 284.594 121.973 285.584 122.213H285.673L289.273 123.439C289.534 123.461 289.791 123.509 290.042 123.584H290.12L310.974 130.707C311.932 131.083 312.704 131.821 313.121 132.762C313.538 133.703 313.568 134.771 313.203 135.733Z" fill="#BA68C8"/>
<path d="M309.358 142.611C309.108 143.569 308.49 144.39 307.639 144.895C306.787 145.4 305.771 145.548 304.81 145.308L301.466 144.193C301.201 144.183 300.938 144.134 300.686 144.048L281.437 137.472C280.521 137.074 279.798 136.333 279.422 135.408C279.047 134.482 279.05 133.447 279.431 132.523C279.681 131.584 280.284 130.777 281.115 130.273C281.946 129.768 282.94 129.604 283.889 129.815H283.967L287.311 130.929C287.553 130.942 287.792 130.983 288.024 131.052H288.102L307.351 137.639C308.273 138.037 309 138.782 309.376 139.713C309.752 140.643 309.745 141.685 309.358 142.611Z" fill="#BA68C8"/>
<path d="M279.653 139.122L280.344 137.037L306.092 145.72L305.401 147.805L279.653 139.122Z" fill="#BA68C8"/>
<path d="M286.324 112.445L285.633 114.518L315.719 124.538L316.409 122.465L286.324 112.445Z" fill="#BA68C8"/>
<g opacity="0.4">
<path opacity="0.4" d="M287.879 57.0869C286.762 58.6285 286.001 60.3986 285.65 62.2698C285.611 62.7766 285.737 63.2824 286.008 63.7122C286.28 64.1419 286.682 64.4727 287.157 64.6554C287.631 64.8381 288.151 64.863 288.641 64.7264C289.131 64.5898 289.563 64.299 289.874 63.8971C292.242 60.9596 295.244 58.5956 298.654 56.9819C302.065 55.3683 305.796 54.5469 309.569 54.579C315.321 54.7016 321.83 56.6634 325.631 50.7114C326.245 49.6124 326.517 48.3547 326.411 47.1C326.411 47.1 326.411 47.1 326.411 47.022C325.152 36.6673 297.911 40.9028 287.879 57.0869Z" fill="white"/>
</g>
<path opacity="0.4" d="M329.699 50.377C329.162 51.1965 328.85 52.1432 328.795 53.1216C328.741 54.1001 328.945 55.0757 329.387 55.95C330.306 57.248 331.632 58.2015 333.155 58.6585C333.891 59.0139 334.694 59.2077 335.511 59.2269C336.328 59.2461 337.14 59.0903 337.892 58.77C339.608 57.7891 340.121 55.493 339.82 53.5313C339.006 47.5236 333.489 44.347 329.699 50.377Z" fill="white"/>
<path d="M284.926 10.6413L297.599 28.3747L284.926 10.6413Z" fill="white"/>
<path d="M284.926 10.6413L297.599 28.3747" stroke="#BA68C8" stroke-width="1.5" stroke-miterlimit="10"/>
<path d="M238.068 37.9714L268.017 52.2718L238.068 37.9714Z" fill="white"/>
<path d="M238.068 37.9714L268.017 52.2718" stroke="#BA68C8" stroke-width="1.5" stroke-miterlimit="10"/>
<path d="M241.434 91.3499L263.826 92.0966L241.434 91.3499Z" fill="white"/>
<path d="M241.434 91.3499L263.826 92.0966" stroke="#BA68C8" stroke-width="1.5" stroke-miterlimit="10"/>
<path d="M376.97 41.984L356.093 48.2815L376.97 41.984Z" fill="white"/>
<path d="M376.97 41.984L356.093 48.2815" stroke="#BA68C8" stroke-width="1.5" stroke-miterlimit="10"/>
<path d="M397.411 92.2304L364.954 85.2976L397.411 92.2304Z" fill="white"/>
<path d="M397.411 92.2304L364.954 85.2976" stroke="#BA68C8" stroke-width="1.5" stroke-miterlimit="10"/>
<path d="M362.179 132.456L343.988 119.382L362.179 132.456Z" fill="white"/>
<path d="M362.179 132.456L343.988 119.382" stroke="#BA68C8" stroke-width="1.5" stroke-miterlimit="10"/>
<path d="M445.975 66.4272L449.497 66.4495L450.467 67.7313L444.983 67.6979L445.975 66.4272Z" fill="#BA68C8"/>
<path opacity="0.5" d="M445.975 66.4272L449.497 66.4495L450.467 67.7313L444.983 67.6979L445.975 66.4272Z" fill="white"/>
<path d="M439.934 82.7674C439.944 81.6837 440.182 80.6142 440.633 79.6289C441.085 78.6436 441.739 77.7646 442.553 77.0495C443.099 76.5845 443.539 76.0094 443.847 75.3621C444.154 74.7147 444.321 74.0097 444.337 73.2932V72.7025H451.024V73.2932C451.028 74.0096 451.184 74.717 451.482 75.3684C451.779 76.0199 452.213 76.6005 452.752 77.0717C453.921 78.1412 454.732 79.5452 455.073 81.0922C455.415 82.6392 455.272 84.254 454.662 85.7164C454.053 87.1789 453.008 88.4179 451.668 89.2644C450.329 90.111 448.761 90.5239 447.179 90.447C445.229 90.3075 443.402 89.4409 442.06 88.0187C440.719 86.5965 439.96 84.7224 439.934 82.7674Z" fill="#BA68C8"/>
<path opacity="0.5" d="M439.934 82.7674C439.944 81.6837 440.182 80.6142 440.633 79.6289C441.085 78.6436 441.739 77.7646 442.553 77.0495C443.099 76.5845 443.539 76.0094 443.847 75.3621C444.154 74.7147 444.321 74.0097 444.337 73.2932V72.7025H451.024V73.2932C451.028 74.0096 451.184 74.717 451.482 75.3684C451.779 76.0199 452.213 76.6005 452.752 77.0717C453.921 78.1412 454.732 79.5452 455.073 81.0922C455.415 82.6392 455.272 84.254 454.662 85.7164C454.053 87.1789 453.008 88.4179 451.668 89.2644C450.329 90.111 448.761 90.5239 447.179 90.447C445.229 90.3075 443.402 89.4409 442.06 88.0187C440.719 86.5965 439.96 84.7224 439.934 82.7674Z" fill="white"/>
<path d="M448.773 72.7136L450.01 79C450.02 79.0488 450.01 79.0994 449.983 79.1412C449.956 79.1829 449.913 79.2122 449.865 79.2229C449.816 79.2294 449.767 79.2168 449.728 79.1877C449.688 79.1585 449.661 79.1153 449.653 79.0669L448.405 72.7805L448.773 72.7136Z" fill="#BA68C8"/>
<path d="M446.588 72.6914L446.967 72.7694L445.641 79.0223C445.63 79.0709 445.601 79.1133 445.559 79.1404C445.517 79.1675 445.466 79.1772 445.418 79.1672C445.393 79.1634 445.369 79.1544 445.348 79.1407C445.327 79.1271 445.309 79.1092 445.295 79.0882C445.282 79.0671 445.273 79.0434 445.269 79.0186C445.265 78.9938 445.266 78.9685 445.273 78.9443L446.588 72.6914Z" fill="#BA68C8"/>
<path d="M446.889 76.3807L447.647 77.7628L448.416 76.3918L449.832 78.0526L449.542 78.2978L448.483 77.0495L447.636 78.5542L446.822 77.0383L445.741 78.2644L445.451 78.0192L446.889 76.3807Z" fill="#BA68C8"/>
<path d="M443.79 71.7216C443.793 71.4959 443.885 71.2805 444.045 71.1219C444.206 70.9634 444.423 70.8745 444.648 70.8745H445.518C445.58 70.863 445.645 70.863 445.707 70.8745H450.723C450.932 70.8985 451.126 70.9986 451.266 71.1559C451.406 71.3131 451.484 71.5165 451.484 71.7272C451.484 71.9379 451.406 72.1413 451.266 72.2985C451.126 72.4557 450.932 72.5559 450.723 72.5799H449.842H449.664H444.648C444.535 72.5814 444.423 72.5602 444.318 72.5176C444.213 72.475 444.118 72.4118 444.038 72.3318C443.958 72.2518 443.895 72.1566 443.852 72.0518C443.81 71.947 443.789 71.8347 443.79 71.7216Z" fill="#BA68C8"/>
<path d="M444.103 70.1055C444.096 69.8886 444.176 69.678 444.324 69.5195C444.472 69.3609 444.677 69.2671 444.894 69.2584H445.708C445.766 69.2467 445.827 69.2467 445.886 69.2584H450.556C450.784 69.2584 451.002 69.3488 451.163 69.5098C451.324 69.6707 451.414 69.889 451.414 70.1166C451.414 70.3442 451.324 70.5625 451.163 70.7235C451.002 70.8844 450.784 70.9749 450.556 70.9749H449.72H449.564H444.905C444.794 70.9736 444.685 70.9497 444.584 70.9047C444.482 70.8597 444.391 70.7945 444.316 70.7131C444.241 70.6317 444.183 70.5359 444.147 70.4314C444.11 70.3269 444.095 70.216 444.103 70.1055Z" fill="#BA68C8"/>
<path d="M444.403 68.4447C444.394 68.2361 444.465 68.0318 444.602 67.8741C444.739 67.7164 444.931 67.6174 445.139 67.5976H445.841C445.896 67.5868 445.953 67.5868 446.008 67.5976H450.333C450.542 67.6174 450.735 67.7184 450.871 67.8789C451.006 68.0393 451.073 68.2464 451.058 68.4558C451.073 68.6623 451.007 68.8666 450.874 69.025C450.74 69.1833 450.55 69.2831 450.344 69.3029H449.575H449.43H445.117C444.911 69.2778 444.722 69.1749 444.59 69.0154C444.457 68.8559 444.391 68.6517 444.403 68.4447Z" fill="#BA68C8"/>
<path d="M450.622 67.1629V67.631L444.86 67.5976V67.1406L450.622 67.1629Z" fill="#BA68C8"/>
<path d="M451.069 72.513H444.337V72.9811H451.069V72.513Z" fill="#BA68C8"/>
<g opacity="0.4">
<path opacity="0.4" d="M454.445 84.2275C454.567 83.8423 454.601 83.4349 454.545 83.0349C454.514 82.9324 454.45 82.8428 454.364 82.7792C454.278 82.7155 454.173 82.6812 454.066 82.6812C453.959 82.6812 453.854 82.7155 453.768 82.7792C453.682 82.8428 453.618 82.9324 453.587 83.0349C453.307 83.7848 452.861 84.4614 452.282 85.0136C451.702 85.5658 451.005 85.9793 450.243 86.2226C449.128 86.5905 447.635 86.635 447.278 88.084C447.226 88.3461 447.253 88.6176 447.356 88.8643C448.315 90.826 453.509 88.1509 454.445 84.2275Z" fill="white"/>
</g>
<path opacity="0.4" d="M446.477 88.3738C446.532 88.1773 446.532 87.9694 446.477 87.7728C446.422 87.5763 446.314 87.3986 446.165 87.2592C445.893 87.0624 445.564 86.9605 445.229 86.9694C445.057 86.9461 444.883 86.9599 444.718 87.0099C444.552 87.0599 444.4 87.145 444.27 87.2592C444.159 87.4364 444.101 87.6411 444.101 87.85C444.101 88.0589 444.159 88.2636 444.27 88.4407C444.794 89.5665 446.12 89.834 446.477 88.3738Z" fill="white"/>
<path d="M450.299 39.5318H444.972V62.4481H450.299V39.5318Z" fill="#263238"/>
<path d="M447.636 1.22289V39.5319" stroke="#263238" stroke-linecap="round" stroke-linejoin="round"/>
<path d="M444.96 56.6745H450.366" stroke="white" stroke-linecap="round" stroke-linejoin="round"/>
<path d="M425.299 82.4887C425.299 76.5647 427.653 70.8832 431.842 66.6943C436.031 62.5054 441.712 60.152 447.636 60.152C453.56 60.152 459.241 62.5054 463.43 66.6943C467.619 70.8832 469.973 76.5647 469.973 82.4887H425.299Z" fill="#263238"/>
</svg>
